<svg xmlns="http://www.w3.org/2000/svg" xmlns:xlink="http://www.w3.org/1999/xlink" width="500" zoomAndPan="magnify" viewBox="0 0 375 374.999991" height="500" preserveAspectRatio="xMidYMid meet" version="1.0"><defs><g/></defs><rect x="-37.5" width="450" fill="#ffffff" y="-37.499999" height="449.999989" fill-opacity="1"/><rect x="-37.5" width="450" fill="#ffffff" y="-37.499999" height="449.999989" fill-opacity="1"/><rect x="-37.5" width="450" fill="#a6a6a6" y="-37.499999" height="449.999989" fill-opacity="1"/><g fill="#ffd700" fill-opacity="1"><g transform="translate(0.0000045, 179.087604)"><g><path d="M 40.34375 -26.1875 L 51.078125 -26.1875 L 51.078125 -5.59375 C 48.328125 -3.507812 45.132812 -1.910156 41.5 -0.796875 C 37.875 0.316406 34.222656 0.875 30.546875 0.875 C 25.273438 0.875 20.535156 -0.25 16.328125 -2.5 C 12.117188 -4.75 8.816406 -7.867188 6.421875 -11.859375 C 4.023438 -15.847656 2.828125 -20.359375 2.828125 -25.390625 C 2.828125 -30.421875 4.023438 -34.929688 6.421875 -38.921875 C 8.816406 -42.921875 12.140625 -46.046875 16.390625 -48.296875 C 20.648438 -50.546875 25.441406 -51.671875 30.765625 -51.671875 C 35.210938 -51.671875 39.25 -50.921875 42.875 -49.421875 C 46.507812 -47.921875 49.5625 -45.742188 52.03125 -42.890625 L 44.484375 -35.921875 C 40.847656 -39.742188 36.46875 -41.65625 31.34375 -41.65625 C 28.101562 -41.65625 25.222656 -40.976562 22.703125 -39.625 C 20.191406 -38.269531 18.234375 -36.359375 16.828125 -33.890625 C 15.429688 -31.421875 14.734375 -28.585938 14.734375 -25.390625 C 14.734375 -22.253906 15.429688 -19.453125 16.828125 -16.984375 C 18.234375 -14.515625 20.179688 -12.585938 22.671875 -11.203125 C 25.160156 -9.828125 28.003906 -9.140625 31.203125 -9.140625 C 34.585938 -9.140625 37.632812 -9.863281 40.34375 -11.3125 Z M 40.34375 -26.1875 "/></g></g></g><g fill="#ffd700" fill-opacity="1"><g transform="translate(51.72309, 179.087604)"><g><path d="M 16.03125 -33.890625 C 17.382812 -35.773438 19.210938 -37.203125 21.515625 -38.171875 C 23.816406 -39.140625 26.460938 -39.625 29.453125 -39.625 L 29.453125 -29.171875 C 28.203125 -29.265625 27.359375 -29.3125 26.921875 -29.3125 C 23.679688 -29.3125 21.140625 -28.40625 19.296875 -26.59375 C 17.460938 -24.78125 16.546875 -22.0625 16.546875 -18.4375 L 16.546875 0 L 5.21875 0 L 5.21875 -39.03125 L 16.03125 -39.03125 Z M 16.03125 -33.890625 "/></g></g></g><g fill="#ffd700" fill-opacity="1"><g transform="translate(78.780968, 179.087604)"><g><path d="M 20.96875 -39.625 C 27.019531 -39.625 31.664062 -38.179688 34.90625 -35.296875 C 38.144531 -32.421875 39.765625 -28.082031 39.765625 -22.28125 L 39.765625 0 L 29.171875 0 L 29.171875 -4.859375 C 27.046875 -1.234375 23.078125 0.578125 17.265625 0.578125 C 14.265625 0.578125 11.664062 0.0703125 9.46875 -0.9375 C 7.269531 -1.957031 5.585938 -3.363281 4.421875 -5.15625 C 3.265625 -6.945312 2.6875 -8.976562 2.6875 -11.25 C 2.6875 -14.875 4.050781 -17.726562 6.78125 -19.8125 C 9.519531 -21.894531 13.742188 -22.9375 19.453125 -22.9375 L 28.4375 -22.9375 C 28.4375 -25.394531 27.6875 -27.289062 26.1875 -28.625 C 24.695312 -29.957031 22.453125 -30.625 19.453125 -30.625 C 17.367188 -30.625 15.320312 -30.296875 13.3125 -29.640625 C 11.300781 -28.984375 9.597656 -28.101562 8.203125 -27 L 4.140625 -34.90625 C 6.265625 -36.40625 8.8125 -37.566406 11.78125 -38.390625 C 14.757812 -39.210938 17.820312 -39.625 20.96875 -39.625 Z M 20.09375 -7.03125 C 22.03125 -7.03125 23.75 -7.476562 25.25 -8.375 C 26.75 -9.269531 27.8125 -10.585938 28.4375 -12.328125 L 28.4375 -16.328125 L 20.6875 -16.328125 C 16.039062 -16.328125 13.71875 -14.800781 13.71875 -11.75 C 13.71875 -10.300781 14.285156 -9.148438 15.421875 -8.296875 C 16.554688 -7.453125 18.113281 -7.03125 20.09375 -7.03125 Z M 20.09375 -7.03125 "/></g></g></g><g fill="#ffd700" fill-opacity="1"><g transform="translate(119.332171, 179.087604)"><g><path d="M 28.953125 -39.625 C 33.785156 -39.625 37.691406 -38.171875 40.671875 -35.265625 C 43.648438 -32.359375 45.140625 -28.050781 45.140625 -22.34375 L 45.140625 0 L 33.8125 0 L 33.8125 -20.609375 C 33.8125 -23.703125 33.132812 -26.007812 31.78125 -27.53125 C 30.425781 -29.0625 28.46875 -29.828125 25.90625 -29.828125 C 23.050781 -29.828125 20.773438 -28.941406 19.078125 -27.171875 C 17.390625 -25.410156 16.546875 -22.785156 16.546875 -19.296875 L 16.546875 0 L 5.21875 0 L 5.21875 -39.03125 L 16.03125 -39.03125 L 16.03125 -34.46875 C 17.53125 -36.113281 19.394531 -37.382812 21.625 -38.28125 C 23.851562 -39.175781 26.296875 -39.625 28.953125 -39.625 Z M 28.953125 -39.625 "/></g></g></g><g fill="#ffd700" fill-opacity="1"><g transform="translate(165.251663, 179.087604)"><g><path d="M 44.984375 -53.84375 L 44.984375 0 L 34.171875 0 L 34.171875 -4.5 C 31.367188 -1.113281 27.304688 0.578125 21.984375 0.578125 C 18.304688 0.578125 14.976562 -0.242188 12 -1.890625 C 9.03125 -3.535156 6.695312 -5.878906 5 -8.921875 C 3.3125 -11.972656 2.46875 -15.503906 2.46875 -19.515625 C 2.46875 -23.535156 3.3125 -27.066406 5 -30.109375 C 6.695312 -33.160156 9.03125 -35.507812 12 -37.15625 C 14.976562 -38.800781 18.304688 -39.625 21.984375 -39.625 C 26.960938 -39.625 30.859375 -38.050781 33.671875 -34.90625 L 33.671875 -53.84375 Z M 23.953125 -8.703125 C 26.804688 -8.703125 29.175781 -9.679688 31.0625 -11.640625 C 32.945312 -13.597656 33.890625 -16.222656 33.890625 -19.515625 C 33.890625 -22.804688 32.945312 -25.429688 31.0625 -27.390625 C 29.175781 -29.347656 26.804688 -30.328125 23.953125 -30.328125 C 21.046875 -30.328125 18.648438 -29.347656 16.765625 -27.390625 C 14.878906 -25.429688 13.9375 -22.804688 13.9375 -19.515625 C 13.9375 -16.222656 14.878906 -13.597656 16.765625 -11.640625 C 18.648438 -9.679688 21.046875 -8.703125 23.953125 -8.703125 Z M 23.953125 -8.703125 "/></g></g></g><g fill="#ffd700" fill-opacity="1"><g transform="translate(211.243702, 179.087604)"><g><path d="M 18.359375 0.578125 C 15.117188 0.578125 11.945312 0.179688 8.84375 -0.609375 C 5.75 -1.410156 3.285156 -2.414062 1.453125 -3.625 L 5.21875 -11.75 C 6.96875 -10.644531 9.070312 -9.738281 11.53125 -9.03125 C 14 -8.332031 16.421875 -7.984375 18.796875 -7.984375 C 23.585938 -7.984375 25.984375 -9.164062 25.984375 -11.53125 C 25.984375 -12.644531 25.328125 -13.441406 24.015625 -13.921875 C 22.710938 -14.410156 20.707031 -14.828125 18 -15.171875 C 14.800781 -15.648438 12.160156 -16.203125 10.078125 -16.828125 C 8.003906 -17.460938 6.203125 -18.578125 4.671875 -20.171875 C 3.148438 -21.765625 2.390625 -24.039062 2.390625 -27 C 2.390625 -29.457031 3.101562 -31.640625 4.53125 -33.546875 C 5.957031 -35.460938 8.035156 -36.953125 10.765625 -38.015625 C 13.503906 -39.085938 16.738281 -39.625 20.46875 -39.625 C 23.21875 -39.625 25.957031 -39.320312 28.6875 -38.71875 C 31.425781 -38.113281 33.691406 -37.273438 35.484375 -36.203125 L 31.703125 -28.15625 C 28.273438 -30.09375 24.53125 -31.0625 20.46875 -31.0625 C 18.039062 -31.0625 16.222656 -30.722656 15.015625 -30.046875 C 13.804688 -29.367188 13.203125 -28.492188 13.203125 -27.421875 C 13.203125 -26.210938 13.851562 -25.363281 15.15625 -24.875 C 16.46875 -24.394531 18.550781 -23.941406 21.40625 -23.515625 C 24.59375 -22.984375 27.203125 -22.410156 29.234375 -21.796875 C 31.273438 -21.191406 33.046875 -20.09375 34.546875 -18.5 C 36.046875 -16.90625 36.796875 -14.679688 36.796875 -11.828125 C 36.796875 -9.410156 36.066406 -7.257812 34.609375 -5.375 C 33.160156 -3.488281 31.046875 -2.023438 28.265625 -0.984375 C 25.484375 0.0546875 22.179688 0.578125 18.359375 0.578125 Z M 18.359375 0.578125 "/></g></g></g><g fill="#ffd700" fill-opacity="1"><g transform="translate(245.55605, 179.087604)"><g><path d="M 30.40625 -1.890625 C 29.289062 -1.066406 27.921875 -0.445312 26.296875 -0.03125 C 24.679688 0.375 22.976562 0.578125 21.1875 0.578125 C 16.539062 0.578125 12.945312 -0.601562 10.40625 -2.96875 C 7.875 -5.34375 6.609375 -8.828125 6.609375 -13.421875 L 6.609375 -29.453125 L 0.578125 -29.453125 L 0.578125 -38.171875 L 6.609375 -38.171875 L 6.609375 -47.671875 L 17.921875 -47.671875 L 17.921875 -38.171875 L 27.640625 -38.171875 L 27.640625 -29.453125 L 17.921875 -29.453125 L 17.921875 -13.5625 C 17.921875 -11.925781 18.34375 -10.660156 19.1875 -9.765625 C 20.039062 -8.867188 21.238281 -8.421875 22.78125 -8.421875 C 24.570312 -8.421875 26.097656 -8.90625 27.359375 -9.875 Z M 30.40625 -1.890625 "/></g></g></g><g fill="#ffd700" fill-opacity="1"><g transform="translate(272.904094, 179.087604)"><g><path d="M 20.96875 -39.625 C 27.019531 -39.625 31.664062 -38.179688 34.90625 -35.296875 C 38.144531 -32.421875 39.765625 -28.082031 39.765625 -22.28125 L 39.765625 0 L 29.171875 0 L 29.171875 -4.859375 C 27.046875 -1.234375 23.078125 0.578125 17.265625 0.578125 C 14.265625 0.578125 11.664062 0.0703125 9.46875 -0.9375 C 7.269531 -1.957031 5.585938 -3.363281 4.421875 -5.15625 C 3.265625 -6.945312 2.6875 -8.976562 2.6875 -11.25 C 2.6875 -14.875 4.050781 -17.726562 6.78125 -19.8125 C 9.519531 -21.894531 13.742188 -22.9375 19.453125 -22.9375 L 28.4375 -22.9375 C 28.4375 -25.394531 27.6875 -27.289062 26.1875 -28.625 C 24.695312 -29.957031 22.453125 -30.625 19.453125 -30.625 C 17.367188 -30.625 15.320312 -30.296875 13.3125 -29.640625 C 11.300781 -28.984375 9.597656 -28.101562 8.203125 -27 L 4.140625 -34.90625 C 6.265625 -36.40625 8.8125 -37.566406 11.78125 -38.390625 C 14.757812 -39.210938 17.820312 -39.625 20.96875 -39.625 Z M 20.09375 -7.03125 C 22.03125 -7.03125 23.75 -7.476562 25.25 -8.375 C 26.75 -9.269531 27.8125 -10.585938 28.4375 -12.328125 L 28.4375 -16.328125 L 20.6875 -16.328125 C 16.039062 -16.328125 13.71875 -14.800781 13.71875 -11.75 C 13.71875 -10.300781 14.285156 -9.148438 15.421875 -8.296875 C 16.554688 -7.453125 18.113281 -7.03125 20.09375 -7.03125 Z M 20.09375 -7.03125 "/></g></g></g><g fill="#ffd700" fill-opacity="1"><g transform="translate(313.455297, 179.087604)"><g><path d="M 17.625 -38.171875 L 27.640625 -38.171875 L 27.640625 -29.453125 L 17.921875 -29.453125 L 17.921875 0 L 6.609375 0 L 6.609375 -29.453125 L 0.578125 -29.453125 L 0.578125 -38.171875 L 6.609375 -38.171875 L 6.609375 -39.90625 C 6.609375 -44.351562 7.925781 -47.882812 10.5625 -50.5 C 13.195312 -53.113281 16.910156 -54.421875 21.703125 -54.421875 C 23.390625 -54.421875 24.992188 -54.238281 26.515625 -53.875 C 28.046875 -53.507812 29.316406 -52.988281 30.328125 -52.3125 L 27.359375 -44.125 C 26.046875 -45.039062 24.519531 -45.5 22.78125 -45.5 C 19.34375 -45.5 17.625 -43.613281 17.625 -39.84375 Z M 17.625 -38.171875 "/></g></g></g><g fill="#ffd700" fill-opacity="1"><g transform="translate(337.321211, 179.087604)"><g><path d="M 17.625 -38.171875 L 27.640625 -38.171875 L 27.640625 -29.453125 L 17.921875 -29.453125 L 17.921875 0 L 6.609375 0 L 6.609375 -29.453125 L 0.578125 -29.453125 L 0.578125 -38.171875 L 6.609375 -38.171875 L 6.609375 -39.90625 C 6.609375 -44.351562 7.925781 -47.882812 10.5625 -50.5 C 13.195312 -53.113281 16.910156 -54.421875 21.703125 -54.421875 C 23.390625 -54.421875 24.992188 -54.238281 26.515625 -53.875 C 28.046875 -53.507812 29.316406 -52.988281 30.328125 -52.3125 L 27.359375 -44.125 C 26.046875 -45.039062 24.519531 -45.5 22.78125 -45.5 C 19.34375 -45.5 17.625 -43.613281 17.625 -39.84375 Z M 17.625 -38.171875 "/></g></g></g><g fill="#ffd700" fill-opacity="1"><g transform="translate(58.485697, 264.653727)"><g><path d="M 5.984375 -50.453125 L 28.90625 -50.453125 C 34.382812 -50.453125 39.222656 -49.40625 43.421875 -47.3125 C 47.628906 -45.226562 50.894531 -42.285156 53.21875 -38.484375 C 55.550781 -34.691406 56.71875 -30.273438 56.71875 -25.234375 C 56.71875 -20.179688 55.550781 -15.753906 53.21875 -11.953125 C 50.894531 -8.160156 47.628906 -5.21875 43.421875 -3.125 C 39.222656 -1.039062 34.382812 0 28.90625 0 L 5.984375 0 Z M 28.328125 -9.59375 C 33.367188 -9.59375 37.390625 -10.992188 40.390625 -13.796875 C 43.398438 -16.609375 44.90625 -20.421875 44.90625 -25.234375 C 44.90625 -30.035156 43.398438 -33.84375 40.390625 -36.65625 C 37.390625 -39.46875 33.367188 -40.875 28.328125 -40.875 L 17.65625 -40.875 L 17.65625 -9.59375 Z M 28.328125 -9.59375 "/></g></g></g><g fill="#ffd700" fill-opacity="1"><g transform="translate(113.822712, 264.653727)"><g><path d="M 43.171875 -19.25 C 43.171875 -19.101562 43.097656 -18.09375 42.953125 -16.21875 L 13.625 -16.21875 C 14.15625 -13.8125 15.40625 -11.910156 17.375 -10.515625 C 19.34375 -9.128906 21.789062 -8.4375 24.71875 -8.4375 C 26.738281 -8.4375 28.53125 -8.734375 30.09375 -9.328125 C 31.65625 -9.929688 33.109375 -10.882812 34.453125 -12.1875 L 40.4375 -5.6875 C 36.78125 -1.507812 31.445312 0.578125 24.4375 0.578125 C 20.0625 0.578125 16.191406 -0.273438 12.828125 -1.984375 C 9.460938 -3.691406 6.867188 -6.054688 5.046875 -9.078125 C 3.222656 -12.109375 2.3125 -15.546875 2.3125 -19.390625 C 2.3125 -23.179688 3.210938 -26.601562 5.015625 -29.65625 C 6.816406 -32.707031 9.289062 -35.085938 12.4375 -36.796875 C 15.582031 -38.503906 19.101562 -39.359375 23 -39.359375 C 26.789062 -39.359375 30.222656 -38.539062 33.296875 -36.90625 C 36.367188 -35.269531 38.78125 -32.925781 40.53125 -29.875 C 42.289062 -26.820312 43.171875 -23.28125 43.171875 -19.25 Z M 23.0625 -30.84375 C 20.519531 -30.84375 18.382812 -30.125 16.65625 -28.6875 C 14.925781 -27.25 13.867188 -25.28125 13.484375 -22.78125 L 32.578125 -22.78125 C 32.191406 -25.226562 31.132812 -27.179688 29.40625 -28.640625 C 27.675781 -30.109375 25.5625 -30.84375 23.0625 -30.84375 Z M 23.0625 -30.84375 "/></g></g></g><g fill="#ffd700" fill-opacity="1"><g transform="translate(155.108978, 264.653727)"><g><path d="M 18.234375 0.578125 C 15.015625 0.578125 11.867188 0.179688 8.796875 -0.609375 C 5.722656 -1.398438 3.269531 -2.398438 1.4375 -3.609375 L 5.1875 -11.671875 C 6.914062 -10.566406 9.003906 -9.664062 11.453125 -8.96875 C 13.910156 -8.269531 16.316406 -7.921875 18.671875 -7.921875 C 23.421875 -7.921875 25.796875 -9.097656 25.796875 -11.453125 C 25.796875 -12.566406 25.144531 -13.363281 23.84375 -13.84375 C 22.550781 -14.320312 20.5625 -14.726562 17.875 -15.0625 C 14.707031 -15.539062 12.085938 -16.09375 10.015625 -16.71875 C 7.953125 -17.34375 6.160156 -18.445312 4.640625 -20.03125 C 3.128906 -21.625 2.375 -23.882812 2.375 -26.8125 C 2.375 -29.257812 3.082031 -31.429688 4.5 -33.328125 C 5.914062 -35.234375 7.984375 -36.710938 10.703125 -37.765625 C 13.421875 -38.828125 16.628906 -39.359375 20.328125 -39.359375 C 23.066406 -39.359375 25.789062 -39.054688 28.5 -38.453125 C 31.21875 -37.847656 33.46875 -37.019531 35.25 -35.96875 L 31.5 -27.96875 C 28.082031 -29.882812 24.359375 -30.84375 20.328125 -30.84375 C 17.921875 -30.84375 16.117188 -30.503906 14.921875 -29.828125 C 13.722656 -29.160156 13.125 -28.300781 13.125 -27.25 C 13.125 -26.039062 13.769531 -25.195312 15.0625 -24.71875 C 16.363281 -24.238281 18.429688 -23.785156 21.265625 -23.359375 C 24.429688 -22.828125 27.023438 -22.257812 29.046875 -21.65625 C 31.066406 -21.0625 32.820312 -19.96875 34.3125 -18.375 C 35.800781 -16.789062 36.546875 -14.582031 36.546875 -11.75 C 36.546875 -9.34375 35.820312 -7.203125 34.375 -5.328125 C 32.9375 -3.453125 30.835938 -2 28.078125 -0.96875 C 25.316406 0.0625 22.035156 0.578125 18.234375 0.578125 Z M 18.234375 0.578125 "/></g></g></g><g fill="#ffd700" fill-opacity="1"><g transform="translate(189.189738, 264.653727)"><g><path d="M 5.1875 -38.78125 L 16.4375 -38.78125 L 16.4375 0 L 5.1875 0 Z M 10.8125 -44.1875 C 8.75 -44.1875 7.066406 -44.785156 5.765625 -45.984375 C 4.472656 -47.179688 3.828125 -48.671875 3.828125 -50.453125 C 3.828125 -52.234375 4.472656 -53.722656 5.765625 -54.921875 C 7.066406 -56.117188 8.75 -56.71875 10.8125 -56.71875 C 12.875 -56.71875 14.554688 -56.140625 15.859375 -54.984375 C 17.160156 -53.835938 17.8125 -52.398438 17.8125 -50.671875 C 17.8125 -48.796875 17.160156 -47.242188 15.859375 -46.015625 C 14.554688 -44.796875 12.875 -44.1875 10.8125 -44.1875 Z M 10.8125 -44.1875 "/></g></g></g><g fill="#ffd700" fill-opacity="1"><g transform="translate(206.697825, 264.653727)"><g><path d="M 45.1875 -38.78125 L 45.1875 -6.484375 C 45.1875 0.628906 43.335938 5.914062 39.640625 9.375 C 35.941406 12.832031 30.535156 14.5625 23.421875 14.5625 C 19.671875 14.5625 16.113281 14.101562 12.75 13.1875 C 9.394531 12.28125 6.609375 10.957031 4.390625 9.21875 L 8.859375 1.15625 C 10.492188 2.5 12.5625 3.566406 15.0625 4.359375 C 17.5625 5.148438 20.0625 5.546875 22.5625 5.546875 C 26.457031 5.546875 29.328125 4.664062 31.171875 2.90625 C 33.023438 1.15625 33.953125 -1.492188 33.953125 -5.046875 L 33.953125 -6.703125 C 31.015625 -3.484375 26.929688 -1.875 21.703125 -1.875 C 18.140625 -1.875 14.878906 -2.65625 11.921875 -4.21875 C 8.972656 -5.78125 6.632812 -7.976562 4.90625 -10.8125 C 3.175781 -13.644531 2.3125 -16.910156 2.3125 -20.609375 C 2.3125 -24.316406 3.175781 -27.585938 4.90625 -30.421875 C 6.632812 -33.253906 8.972656 -35.453125 11.921875 -37.015625 C 14.878906 -38.578125 18.140625 -39.359375 21.703125 -39.359375 C 27.316406 -39.359375 31.59375 -37.507812 34.53125 -33.8125 L 34.53125 -38.78125 Z M 23.9375 -11.09375 C 26.914062 -11.09375 29.351562 -11.96875 31.25 -13.71875 C 33.144531 -15.476562 34.09375 -17.773438 34.09375 -20.609375 C 34.09375 -23.441406 33.144531 -25.734375 31.25 -27.484375 C 29.351562 -29.242188 26.914062 -30.125 23.9375 -30.125 C 20.957031 -30.125 18.503906 -29.242188 16.578125 -27.484375 C 14.648438 -25.734375 13.6875 -23.441406 13.6875 -20.609375 C 13.6875 -17.773438 14.648438 -15.476562 16.578125 -13.71875 C 18.503906 -11.96875 20.957031 -11.09375 23.9375 -11.09375 Z M 23.9375 -11.09375 "/></g></g></g><g fill="#ffd700" fill-opacity="1"><g transform="translate(252.955883, 264.653727)"><g><path d="M 28.765625 -39.359375 C 33.566406 -39.359375 37.441406 -37.914062 40.390625 -35.03125 C 43.347656 -32.144531 44.828125 -27.867188 44.828125 -22.203125 L 44.828125 0 L 33.59375 0 L 33.59375 -20.46875 C 33.59375 -23.539062 32.914062 -25.832031 31.5625 -27.34375 C 30.21875 -28.863281 28.273438 -29.625 25.734375 -29.625 C 22.898438 -29.625 20.640625 -28.742188 18.953125 -26.984375 C 17.273438 -25.234375 16.4375 -22.628906 16.4375 -19.171875 L 16.4375 0 L 5.1875 0 L 5.1875 -38.78125 L 15.921875 -38.78125 L 15.921875 -34.234375 C 17.410156 -35.867188 19.257812 -37.128906 21.46875 -38.015625 C 23.6875 -38.910156 26.117188 -39.359375 28.765625 -39.359375 Z M 28.765625 -39.359375 "/></g></g></g><g fill="#ffd700" fill-opacity="1"><g transform="translate(298.565446, 264.653727)"><g><path d="M 18.234375 0.578125 C 15.015625 0.578125 11.867188 0.179688 8.796875 -0.609375 C 5.722656 -1.398438 3.269531 -2.398438 1.4375 -3.609375 L 5.1875 -11.671875 C 6.914062 -10.566406 9.003906 -9.664062 11.453125 -8.96875 C 13.910156 -8.269531 16.316406 -7.921875 18.671875 -7.921875 C 23.421875 -7.921875 25.796875 -9.097656 25.796875 -11.453125 C 25.796875 -12.566406 25.144531 -13.363281 23.84375 -13.84375 C 22.550781 -14.320312 20.5625 -14.726562 17.875 -15.0625 C 14.707031 -15.539062 12.085938 -16.09375 10.015625 -16.71875 C 7.953125 -17.34375 6.160156 -18.445312 4.640625 -20.03125 C 3.128906 -21.625 2.375 -23.882812 2.375 -26.8125 C 2.375 -29.257812 3.082031 -31.429688 4.5 -33.328125 C 5.914062 -35.234375 7.984375 -36.710938 10.703125 -37.765625 C 13.421875 -38.828125 16.628906 -39.359375 20.328125 -39.359375 C 23.066406 -39.359375 25.789062 -39.054688 28.5 -38.453125 C 31.21875 -37.847656 33.46875 -37.019531 35.25 -35.96875 L 31.5 -27.96875 C 28.082031 -29.882812 24.359375 -30.84375 20.328125 -30.84375 C 17.921875 -30.84375 16.117188 -30.503906 14.921875 -29.828125 C 13.722656 -29.160156 13.125 -28.300781 13.125 -27.25 C 13.125 -26.039062 13.769531 -25.195312 15.0625 -24.71875 C 16.363281 -24.238281 18.429688 -23.785156 21.265625 -23.359375 C 24.429688 -22.828125 27.023438 -22.257812 29.046875 -21.65625 C 31.066406 -21.0625 32.820312 -19.96875 34.3125 -18.375 C 35.800781 -16.789062 36.546875 -14.582031 36.546875 -11.75 C 36.546875 -9.34375 35.820312 -7.203125 34.375 -5.328125 C 32.9375 -3.453125 30.835938 -2 28.078125 -0.96875 C 25.316406 0.0625 22.035156 0.578125 18.234375 0.578125 Z M 18.234375 0.578125 "/></g></g></g></svg>