<svg xmlns="http://www.w3.org/2000/svg" xmlns:xlink="http://www.w3.org/1999/xlink" zoomAndPan="magnify" preserveAspectRatio="xMidYMid meet" version="1.0" viewBox="9.33 0 355.64 246.52"><defs><g/><clipPath id="5c897c210f"><path d="M 125 192 L 239 192 L 239 223.5 L 125 223.5 Z M 125 192 " clip-rule="nonzero"/></clipPath><clipPath id="8ba746b562"><path d="M 234 219 L 239 219 L 239 223.5 L 234 223.5 Z M 234 219 " clip-rule="nonzero"/></clipPath></defs><path fill="#a77022" d="M 115.691406 172.601562 C 117.183594 172.632812 118.683594 172.707031 120.179688 172.800781 C 120.121094 172.390625 120.050781 171.980469 120 171.570312 C 118.066406 156.722656 119.75 142.113281 127.40625 128.6875 C 132.429688 119.875 140.289062 113.773438 147.378906 106.855469 C 158.617188 95.886719 172.4375 94.15625 184.09375 94.582031 C 210.726562 93.855469 230.1875 103.113281 245.300781 120.832031 C 261.828125 140.207031 263.996094 161.523438 257.464844 183.617188 C 259.789062 183.976562 262.117188 184.296875 264.445312 184.566406 C 263.589844 184.042969 263.382812 183.246094 263.660156 182.054688 C 263.914062 180.957031 264.167969 179.070312 265.507812 179.484375 C 268.054688 180.273438 270.570312 179.578125 273.132812 180.054688 C 281.925781 181.6875 290.800781 182.847656 299.644531 184.226562 C 302.058594 183.84375 304.476562 183.382812 306.894531 182.820312 C 309.09375 182.3125 311.257812 181.664062 313.402344 180.929688 C 310.621094 180.503906 307.839844 180.078125 305.058594 179.644531 C 293.011719 177.773438 281.007812 175.558594 268.914062 174.097656 C 264.027344 173.507812 266.007812 170.453125 265.585938 168.125 C 264.988281 164.835938 267.054688 164.972656 269.378906 164.996094 C 283.15625 165.125 296.925781 165.222656 310.691406 165.960938 C 318.820312 166.398438 326.984375 166.144531 335.132812 166.199219 C 337.304688 166.214844 339.203125 165.707031 338.90625 163.007812 C 338.640625 160.59375 336.59375 160.746094 334.847656 160.75 C 330.613281 160.757812 326.375 161.027344 322.152344 160.839844 C 306.710938 160.152344 291.289062 158.949219 275.808594 159.316406 C 272.738281 159.386719 269.097656 160.039062 266.75 158.660156 C 264.6875 157.449219 265.933594 153.480469 265.3125 150.820312 C 264.378906 146.828125 261.796875 142.148438 263.355469 138.960938 C 265.097656 135.410156 270.535156 134.5625 274.503906 132.855469 C 282.261719 129.519531 290.117188 126.410156 297.871094 123.066406 C 299.34375 122.433594 301.433594 121.457031 300.136719 119.230469 C 299.234375 117.675781 297.84375 116.882812 295.660156 117.84375 C 284.988281 122.546875 273.765625 125.980469 263.511719 131.621094 C 261.125 132.933594 260.125 132.714844 258.539062 130.457031 C 256.585938 127.675781 258.378906 126.378906 260.070312 125.378906 C 264.914062 122.511719 269.832031 119.734375 274.917969 117.328125 C 295.09375 107.777344 314.15625 96.222656 333.507812 85.1875 C 335.074219 84.292969 336.414062 83.375 335.664062 81.503906 C 334.894531 79.59375 332.808594 79.6875 331.417969 80.214844 C 328.714844 81.238281 326.171875 82.714844 323.644531 84.148438 C 310.195312 91.789062 297 99.914062 283.257812 106.988281 C 274.195312 111.652344 264.535156 115.128906 256.179688 121.191406 C 255.214844 121.894531 253.210938 123.191406 252.183594 120.902344 C 251.070312 118.425781 249.011719 116.816406 247.15625 115.050781 C 245.707031 113.667969 245.949219 112.867188 247.257812 111.554688 C 257.703125 101.070312 268.417969 90.867188 279.488281 81.050781 C 285.308594 75.886719 291.222656 70.832031 297.089844 65.722656 C 298.414062 64.570312 299.265625 63.394531 297.769531 61.675781 C 296.597656 60.328125 294.882812 59.992188 294.050781 61.140625 C 292.453125 63.359375 289.894531 64.054688 287.992188 65.789062 C 282.335938 70.945312 276.75 76.285156 270.792969 80.996094 C 262.378906 87.648438 255.757812 96.023438 247.644531 102.957031 C 241.296875 108.378906 242.011719 109.214844 235.355469 104.132812 C 244.066406 94.710938 252.988281 85.476562 261.421875 75.816406 C 271.730469 64.015625 281.859375 52.046875 291.191406 39.4375 C 292.394531 37.816406 294.230469 36.035156 292.234375 34.597656 C 290.558594 33.390625 288.242188 33.816406 286.457031 36.097656 C 281.84375 42 276.972656 47.730469 272.332031 53.59375 C 259.921875 69.277344 246.3125 83.835938 232.414062 98.160156 C 231.5625 99.039062 230.757812 100.375 229.132812 99.117188 C 232.425781 91.210938 236.371094 83.617188 240.375 76.039062 C 246.964844 63.5625 253.460938 51.039062 260.664062 38.898438 C 261.671875 37.195312 262.609375 35.417969 260.503906 33.816406 C 258.328125 32.160156 256.96875 34.082031 256.203125 35.375 C 250.824219 44.433594 245.378906 53.476562 240.480469 62.796875 C 234.859375 73.492188 229.804688 84.480469 224.429688 95.308594 C 223.820312 96.535156 222.867188 96.976562 221.226562 96.210938 C 216.3125 93.914062 211.496094 91.257812 205.910156 90.792969 C 204.597656 90.6875 203.800781 89.777344 204.011719 88.449219 C 205.316406 80.28125 205.007812 71.964844 206.125 63.808594 C 207.984375 50.179688 209.089844 36.507812 209.808594 22.789062 C 209.929688 20.453125 210.042969 17.714844 206.78125 18.035156 C 204.003906 18.308594 203.960938 20.742188 203.9375 23.257812 C 203.878906 29.183594 203.761719 35.167969 202.882812 41.011719 C 201.605469 49.492188 201.265625 58.050781 200.164062 66.535156 C 199.355469 72.761719 199.15625 79.015625 198.871094 85.273438 C 198.714844 88.738281 196.421875 89.15625 193.378906 88.996094 C 189.941406 88.8125 191.21875 86.417969 190.960938 84.785156 C 190.628906 82.714844 190.242188 80.589844 190.382812 78.523438 C 191.90625 56.46875 191.011719 34.328125 192.847656 12.285156 C 193.097656 9.246094 193.09375 6.167969 192.308594 3.089844 C 191.847656 1.273438 191.421875 0.00390625 189.367188 0 C 186.789062 -0.00390625 187.175781 2.035156 187.269531 3.480469 C 188.355469 20.214844 184.863281 36.769531 185.457031 53.507812 C 185.746094 61.714844 184.425781 69.964844 184.421875 78.191406 C 184.417969 88.105469 184.671875 88.003906 174.886719 89.535156 C 172.753906 89.867188 172.152344 89.542969 171.585938 87.457031 C 168.640625 76.554688 165.425781 65.722656 162.410156 54.839844 C 160.972656 49.640625 159.855469 44.351562 158.402344 39.15625 C 158.003906 37.734375 157.484375 35.914062 155.25 36.160156 C 152.886719 36.421875 153.351562 38.289062 153.039062 39.816406 C 152.503906 42.414062 154.199219 44.398438 154.6875 46.699219 C 157.582031 60.351562 161.324219 73.765625 165.625 87.042969 C 165.902344 87.898438 168.203125 90.601562 165.148438 90.566406 C 162.988281 90.539062 160.253906 94.355469 158.335938 89.882812 C 154.75 81.519531 150.777344 73.328125 147.203125 64.960938 C 139.9375 47.933594 133.425781 30.574219 124.824219 14.128906 C 123.671875 11.929688 122.382812 9.765625 119.75 11.164062 C 117.089844 12.574219 118.9375 14.773438 119.773438 16.601562 C 124.304688 26.542969 128.929688 36.4375 133.34375 46.425781 C 136.164062 52.8125 138.753906 59.304688 141.296875 65.808594 C 144.742188 74.617188 148.789062 83.144531 153.011719 91.597656 C 153.972656 93.53125 152.894531 94.890625 151.273438 96.085938 C 148.949219 97.808594 148.328125 96.007812 147.277344 94.539062 C 142.445312 87.773438 138.550781 80.453125 134.464844 73.25 C 128.234375 62.265625 121.980469 51.292969 115.929688 40.210938 C 114.679688 37.914062 113 37.558594 111.164062 38.351562 C 109.027344 39.277344 109.617188 41.453125 110.503906 42.875 C 121.050781 59.707031 129.519531 77.738281 140.394531 94.378906 C 144.417969 100.539062 144.34375 100.585938 139.261719 106.074219 C 130.675781 115.347656 130.777344 115.1875 119.980469 108.289062 C 105.886719 99.285156 92.449219 89.355469 78.75 79.792969 C 76.84375 78.460938 74.324219 76.605469 72.402344 79.300781 C 70.472656 82.007812 73.515625 83.386719 75.097656 84.574219 C 79.929688 88.195312 84.988281 91.515625 89.984375 94.914062 C 101.300781 102.617188 112.617188 110.324219 123.992188 117.945312 C 124.878906 118.539062 126.386719 118.449219 125.695312 120.0625 C 125.335938 120.894531 124.6875 121.976562 123.953125 122.191406 C 122.546875 122.601562 121.257812 121.84375 119.9375 121.074219 C 97.082031 107.769531 73.269531 96.332031 49.394531 85.015625 C 47.492188 84.113281 45.160156 82.953125 43.882812 85.4375 C 42.589844 87.953125 45.015625 88.777344 46.761719 89.984375 C 53.871094 94.898438 62.226562 97.175781 69.761719 101.109375 C 84.148438 108.621094 98.898438 115.472656 112.714844 124.054688 C 115.214844 125.605469 119.179688 126.339844 120.105469 128.476562 C 121.210938 131.023438 117.988281 134.125 117.367188 137.03125 C 116.632812 140.472656 115.207031 141.285156 112.183594 140.703125 C 102.898438 138.914062 93.613281 137.144531 84.332031 135.335938 C 82.140625 134.910156 79.574219 133.78125 78.769531 136.988281 C 78.074219 139.78125 80.332031 140.234375 82.5 140.65625 C 93.261719 142.769531 104.003906 144.964844 114.765625 147.132812 C 114.425781 150.636719 112.90625 152 108.925781 151.640625 C 97.816406 150.632812 86.636719 150.4375 75.527344 149.429688 C 66.246094 148.585938 57.042969 146.890625 47.777344 145.851562 C 39.4375 144.917969 31.058594 144.347656 22.691406 143.660156 C 21.03125 143.523438 18.914062 143.699219 19.207031 145.800781 C 19.398438 147.1875 20.074219 149.410156 22.367188 149.503906 C 31.761719 149.886719 41.054688 151.140625 50.367188 152.386719 C 58.371094 153.457031 66.425781 154.3125 74.453125 155.085938 C 78.574219 155.480469 82.636719 156.84375 86.851562 156.359375 C 94.78125 155.453125 102.570312 157.773438 110.492188 157.449219 C 111.402344 157.414062 113.089844 157.367188 113.367188 159.457031 C 114.136719 165.28125 112.546875 167.085938 106.542969 166.734375 C 104.601562 166.625 102.652344 166.703125 100.707031 166.675781 C 82.089844 166.414062 63.503906 168.601562 44.871094 167.308594 C 43.042969 167.183594 40.679688 166.78125 40.527344 169.789062 C 40.378906 172.851562 42.425781 173.101562 44.75 172.996094 C 45.726562 172.949219 46.707031 173.046875 47.683594 173.03125 C 67.074219 172.710938 86.460938 172.339844 105.851562 172.082031 C 108.871094 172.042969 110.707031 172.074219 111.929688 172.582031 C 113.183594 172.570312 114.4375 172.574219 115.691406 172.601562 Z M 115.691406 172.601562 " fill-opacity="1" fill-rule="nonzero"/><path fill="#a77022" d="M 111.929688 172.582031 C 111.136719 172.589844 110.347656 172.59375 109.5625 172.613281 C 99.617188 172.867188 89.722656 174.144531 79.816406 175.332031 C 65.199219 177.082031 51.433594 182.355469 37.253906 185.910156 C 31.945312 187.238281 26.28125 187.707031 21.855469 191.414062 C 21.121094 192.027344 19.203125 192.472656 20.230469 194.070312 C 20.984375 195.246094 22.175781 195.777344 23.804688 195.261719 C 37.925781 190.804688 52.398438 187.609375 66.628906 183.558594 C 78.660156 180.136719 90.988281 178.753906 103.285156 178.125 C 105.390625 178.015625 107.496094 177.984375 109.605469 177.984375 C 111.316406 177.984375 113.03125 178.027344 114.746094 178.085938 C 114.070312 174.769531 113.539062 173.253906 111.929688 172.582031 Z M 111.929688 172.582031 " fill-opacity="1" fill-rule="nonzero"/><path fill="#a77022" d="M 298.589844 200.601562 C 292.992188 202.429688 287.25 203.84375 281.359375 204.808594 C 275.078125 205.839844 268.859375 206.15625 262.695312 205.929688 C 262.128906 205.910156 261.558594 205.878906 260.992188 205.851562 C 262.023438 206.4375 263.289062 207.078125 264.824219 207.851562 C 266.925781 208.902344 269.007812 209.988281 271.089844 211.074219 C 271.339844 211.058594 271.59375 211.054688 271.84375 211.039062 C 281.148438 210.503906 290.375 208.792969 299.550781 205.898438 C 302.15625 205.074219 304.675781 204.074219 307.164062 202.996094 C 304.46875 202.136719 301.769531 201.28125 299.070312 200.4375 C 298.910156 200.492188 298.75 200.546875 298.589844 200.601562 Z M 298.589844 200.601562 " fill-opacity="1" fill-rule="nonzero"/><path fill="#a77022" d="M 225.398438 199.054688 C 197.785156 190.777344 171.519531 177.945312 142.453125 174.589844 C 141.757812 174.589844 141.0625 174.585938 140.371094 174.585938 C 136.339844 173.570312 132.152344 174.191406 128.136719 173.605469 C 125.476562 173.21875 122.824219 172.964844 120.175781 172.800781 C 120.445312 174.695312 120.765625 176.570312 121.144531 178.421875 C 128.734375 178.949219 136.324219 179.871094 143.914062 180.761719 C 160.972656 182.765625 177.039062 188.078125 192.886719 193.882812 C 208.359375 199.554688 223.820312 204.921875 239.925781 208.324219 C 241.527344 208.664062 243.128906 209.007812 244.746094 209.304688 C 245.003906 209.351562 245.257812 209.386719 245.515625 209.433594 C 245.636719 209.457031 245.757812 209.472656 245.878906 209.492188 C 246.894531 207.871094 247.859375 206.222656 248.777344 204.550781 C 246.949219 204.261719 245.121094 203.941406 243.300781 203.578125 C 237.292969 202.386719 231.332031 200.832031 225.394531 199.054688 Z M 225.398438 199.054688 " fill-opacity="1" fill-rule="nonzero"/><path fill="#a77022" d="M 321.9375 196.382812 C 322.265625 195.257812 323.300781 195.652344 324.039062 195.40625 C 325.035156 193.945312 326.0625 192.371094 324.097656 191.007812 C 322.597656 189.972656 321.128906 190.277344 319.425781 191.273438 C 316.019531 193.269531 312.523438 195.03125 308.964844 196.617188 C 308.535156 196.808594 308.097656 196.988281 307.664062 197.175781 C 310.109375 197.925781 312.558594 198.675781 315.003906 199.429688 C 317.296875 198.371094 319.597656 197.328125 321.9375 196.386719 Z M 321.9375 196.382812 " fill-opacity="1" fill-rule="nonzero"/><path fill="#a77022" d="M 251.914062 209.671875 C 251.738281 209.902344 251.585938 210.105469 251.421875 210.324219 C 253.882812 210.632812 256.335938 210.871094 258.78125 211.019531 C 257.636719 210.363281 256.496094 209.703125 255.367188 209.027344 C 253.527344 207.929688 252.886719 208.382812 251.914062 209.671875 Z M 251.914062 209.671875 " fill-opacity="1" fill-rule="nonzero"/><path fill="#a77022" d="M 260.992188 205.851562 C 256.898438 205.636719 252.828125 205.1875 248.777344 204.550781 C 247.859375 206.222656 246.894531 207.871094 245.878906 209.492188 C 247.730469 209.816406 249.578125 210.089844 251.421875 210.324219 C 251.585938 210.105469 251.738281 209.902344 251.914062 209.671875 C 252.886719 208.382812 253.527344 207.929688 255.367188 209.027344 C 256.496094 209.703125 257.636719 210.363281 258.78125 211.019531 C 258.824219 211.023438 258.871094 211.027344 258.914062 211.027344 C 262.988281 211.269531 267.046875 211.277344 271.089844 211.074219 C 269.007812 209.988281 266.925781 208.902344 264.824219 207.851562 C 263.289062 207.082031 262.023438 206.4375 260.992188 205.851562 Z M 260.992188 205.851562 " fill-opacity="1" fill-rule="nonzero"/><path fill="#a77022" d="M 307.164062 202.996094 C 307.527344 202.839844 307.894531 202.6875 308.257812 202.527344 C 310.082031 201.71875 311.890625 200.875 313.703125 200.035156 C 314.136719 199.832031 314.570312 199.632812 315.003906 199.429688 C 312.558594 198.675781 310.109375 197.925781 307.664062 197.171875 C 304.84375 198.382812 301.980469 199.472656 299.070312 200.4375 C 301.769531 201.28125 304.46875 202.136719 307.164062 202.996094 Z M 307.164062 202.996094 " fill-opacity="1" fill-rule="nonzero"/><path fill="#a77022" d="M 121.144531 178.421875 C 120.765625 176.570312 120.449219 174.691406 120.179688 172.800781 C 118.679688 172.707031 117.183594 172.632812 115.691406 172.601562 C 114.4375 172.574219 113.183594 172.570312 111.929688 172.582031 C 113.539062 173.25 114.070312 174.769531 114.746094 178.085938 C 115.304688 178.105469 115.867188 178.121094 116.429688 178.144531 C 118 178.214844 119.574219 178.3125 121.144531 178.421875 Z M 121.144531 178.421875 " fill-opacity="1" fill-rule="nonzero"/><path fill="#a77022" d="M 240.386719 180.347656 C 218.683594 175.472656 198.617188 164.730469 176.136719 162.675781 C 167.863281 161.921875 159.605469 162.015625 151.328125 162.363281 C 149.535156 162.441406 148.863281 163.605469 148.742188 164.976562 C 148.597656 166.589844 149.707031 167.441406 151.300781 167.507812 C 152.507812 167.558594 153.726562 167.601562 154.929688 167.515625 C 175.050781 166.136719 194.09375 170.519531 212.871094 177.4375 C 225.160156 181.964844 237.667969 185.574219 250.84375 187.859375 C 252.496094 188.148438 254.160156 188.40625 255.832031 188.648438 C 256.425781 186.96875 256.96875 185.292969 257.464844 183.617188 C 255.742188 183.351562 254.015625 183.070312 252.292969 182.761719 C 248.320312 182.050781 244.351562 181.238281 240.386719 180.347656 Z M 240.386719 180.347656 " fill-opacity="1" fill-rule="nonzero"/><path fill="#a77022" d="M 299.640625 184.226562 C 288.011719 186.070312 276.394531 185.933594 264.808594 184.613281 C 264.6875 184.597656 264.566406 184.582031 264.441406 184.566406 C 264.765625 184.765625 265.171875 184.925781 265.695312 185.050781 C 271.425781 186.421875 277.125 187.957031 282.777344 189.628906 C 284.042969 190.003906 285.304688 190.394531 286.570312 190.769531 C 287.070312 190.800781 287.574219 190.832031 288.078125 190.847656 C 296.496094 191.152344 304.917969 189.324219 313.339844 186.515625 C 309.449219 185.839844 305.550781 185.167969 301.652344 184.542969 C 300.980469 184.433594 300.3125 184.332031 299.640625 184.226562 Z M 299.640625 184.226562 " fill-opacity="1" fill-rule="nonzero"/><path fill="#a77022" d="M 337.023438 176.941406 C 339.496094 175.863281 344.554688 175.636719 342.351562 171.507812 C 340.9375 168.859375 336.988281 171.171875 334.167969 172.324219 C 327.253906 175.15625 320.4375 178.527344 313.402344 180.929688 C 316.90625 181.472656 320.410156 182.015625 323.914062 182.550781 C 328.28125 180.765625 332.652344 178.847656 337.023438 176.941406 Z M 337.023438 176.941406 " fill-opacity="1" fill-rule="nonzero"/><path fill="#a77022" d="M 265.695312 185.050781 C 265.175781 184.925781 264.765625 184.765625 264.445312 184.566406 C 262.117188 184.296875 259.789062 183.976562 257.464844 183.617188 C 256.96875 185.289062 256.425781 186.96875 255.832031 188.648438 C 264.945312 189.976562 274.390625 190.675781 284.328125 190.582031 C 285.074219 190.667969 285.824219 190.726562 286.570312 190.773438 C 285.304688 190.394531 284.042969 190.003906 282.777344 189.628906 C 277.125 187.957031 271.425781 186.421875 265.695312 185.050781 Z M 265.695312 185.050781 " fill-opacity="1" fill-rule="nonzero"/><path fill="#a77022" d="M 313.402344 180.929688 C 311.257812 181.664062 309.089844 182.3125 306.894531 182.820312 C 304.476562 183.382812 302.058594 183.84375 299.640625 184.226562 C 300.3125 184.332031 300.980469 184.4375 301.652344 184.542969 C 305.550781 185.167969 309.445312 185.84375 313.339844 186.515625 C 316.863281 185.339844 320.390625 183.992188 323.914062 182.550781 C 320.410156 182.015625 316.90625 181.472656 313.402344 180.929688 Z M 313.402344 180.929688 " fill-opacity="1" fill-rule="nonzero"/><path fill="#a77022" d="M 110.859375 192.261719 C 101.101562 192.101562 92.863281 192.136719 84.894531 193.007812 C 79.019531 194.496094 73.144531 195.980469 67.265625 197.464844 C 66.835938 197.863281 66.605469 198.363281 66.824219 199.058594 C 67.171875 200.179688 68.40625 200.851562 69.757812 200.707031 C 70.757812 200.597656 71.746094 200.382812 72.742188 200.222656 C 79.464844 199.136719 86.117188 197.511719 92.992188 197.609375 C 96.097656 197.652344 99.199219 197.648438 102.300781 197.644531 C 105.523438 195.871094 108.730469 194.070312 111.921875 192.246094 C 111.566406 192.25 111.214844 192.25 110.859375 192.261719 Z M 110.859375 192.261719 " fill-opacity="1" fill-rule="nonzero"/><path fill="#a77022" d="M 116.433594 196.261719 C 115.617188 196.75 114.789062 197.222656 113.96875 197.699219 C 116.539062 197.746094 119.113281 197.828125 121.6875 197.972656 C 121.65625 197.910156 121.625 197.851562 121.601562 197.792969 C 120.550781 195.40625 119.117188 194.652344 116.433594 196.261719 Z M 116.433594 196.261719 " fill-opacity="1" fill-rule="nonzero"/><g clip-path="url(#5c897c210f)"><path fill="#a77022" d="M 235.898438 218.277344 C 234.414062 218.082031 232.941406 217.847656 231.476562 217.585938 C 221.464844 215.800781 211.816406 212.617188 202.210938 209.332031 C 176.730469 200.613281 150.929688 193.738281 125.34375 192.414062 C 126.195312 194.480469 127.164062 196.496094 128.230469 198.457031 C 135.714844 199.164062 143.304688 199.660156 150.652344 200.90625 C 173.667969 204.804688 195.332031 213.695312 217.679688 220.101562 C 220.367188 220.875 223.078125 221.777344 225.839844 222.4375 C 228.523438 223.082031 231.257812 223.484375 234.0625 223.28125 C 235.582031 222.058594 237.035156 220.726562 238.429688 219.28125 C 237.882812 218.640625 236.957031 218.417969 235.902344 218.277344 Z M 235.898438 218.277344 " fill-opacity="1" fill-rule="nonzero"/></g><path fill="#a77022" d="M 127.519531 198.390625 C 127.757812 198.414062 127.996094 198.433594 128.230469 198.457031 C 127.164062 196.492188 126.195312 194.480469 125.34375 192.414062 C 123.652344 192.328125 121.960938 192.265625 120.273438 192.226562 C 117.851562 192.171875 115.433594 192.171875 113.015625 192.222656 C 112.652344 192.234375 112.285156 192.238281 111.921875 192.242188 C 108.730469 194.070312 105.523438 195.871094 102.300781 197.644531 C 105.820312 197.636719 109.339844 197.625 112.859375 197.675781 C 113.230469 197.679688 113.601562 197.691406 113.96875 197.699219 C 114.789062 197.222656 115.617188 196.75 116.433594 196.261719 C 119.117188 194.652344 120.550781 195.40625 121.601562 197.792969 C 121.625 197.851562 121.65625 197.910156 121.6875 197.96875 C 122.066406 197.992188 122.441406 198 122.820312 198.023438 C 124.386719 198.121094 125.953125 198.238281 127.523438 198.390625 Z M 127.519531 198.390625 " fill-opacity="1" fill-rule="nonzero"/><g clip-path="url(#8ba746b562)"><path fill="#a77022" d="M 234.0625 223.28125 C 234.632812 223.242188 235.203125 223.183594 235.777344 223.089844 C 237.121094 222.871094 239.191406 222.65625 238.910156 220.425781 C 238.847656 219.933594 238.671875 219.570312 238.429688 219.28125 C 237.035156 220.726562 235.582031 222.058594 234.0625 223.28125 Z M 234.0625 223.28125 " fill-opacity="1" fill-rule="nonzero"/></g><g fill="#a77022" fill-opacity="1"><g transform="translate(8.458407, 245.866433)"><g><path d="M 13.203125 -5.203125 L 5.609375 -5.203125 L 3.5 0 L 0.875 0 L 9.515625 -20.59375 L 9.6875 -20.59375 L 18.328125 0 L 15.265625 0 Z M 12.3125 -7.5 L 9.484375 -14.71875 L 6.5625 -7.5 Z M 12.3125 -7.5 "/></g></g></g><g fill="#a77022" fill-opacity="1"><g transform="translate(34.641606, 245.866433)"><g/></g></g><g fill="#a77022" fill-opacity="1"><g transform="translate(50.303474, 245.866433)"><g><path d="M 18.34375 -1.703125 C 17.75 -1.222656 16.804688 -0.78125 15.515625 -0.375 C 14.234375 0.0195312 13.046875 0.21875 11.953125 0.21875 C 9.890625 0.21875 8.070312 -0.203125 6.5 -1.046875 C 4.9375 -1.898438 3.726562 -3.0625 2.875 -4.53125 C 2.03125 -6.007812 1.609375 -7.671875 1.609375 -9.515625 C 1.609375 -11.671875 2.0625 -13.535156 2.96875 -15.109375 C 3.882812 -16.679688 5.117188 -17.882812 6.671875 -18.71875 C 8.222656 -19.5625 9.921875 -19.984375 11.765625 -19.984375 C 12.867188 -19.984375 13.910156 -19.851562 14.890625 -19.59375 C 15.878906 -19.332031 16.769531 -18.984375 17.5625 -18.546875 L 16.6875 -16.109375 C 16.101562 -16.429688 15.367188 -16.71875 14.484375 -16.96875 C 13.597656 -17.21875 12.800781 -17.34375 12.09375 -17.34375 C 10.5625 -17.34375 9.207031 -17.03125 8.03125 -16.40625 C 6.851562 -15.789062 5.941406 -14.90625 5.296875 -13.75 C 4.660156 -12.601562 4.34375 -11.265625 4.34375 -9.734375 C 4.34375 -8.316406 4.660156 -7.050781 5.296875 -5.9375 C 5.941406 -4.820312 6.847656 -3.957031 8.015625 -3.34375 C 9.179688 -2.738281 10.507812 -2.4375 12 -2.4375 C 12.695312 -2.4375 13.375 -2.503906 14.03125 -2.640625 C 14.6875 -2.773438 15.234375 -2.972656 15.671875 -3.234375 L 15.671875 -7.140625 L 11.734375 -7.140625 L 11.734375 -9.6875 L 18.34375 -9.6875 Z M 18.34375 -1.703125 "/></g></g></g><g fill="#a77022" fill-opacity="1"><g transform="translate(77.880415, 245.866433)"><g><path d="M 13.734375 0 L 9.078125 -7.296875 C 8.929688 -7.285156 8.710938 -7.28125 8.421875 -7.28125 L 5.5 -7.28125 L 5.5 0 L 2.84375 0 L 2.84375 -19.765625 L 8.125 -19.765625 C 9.46875 -19.765625 10.664062 -19.523438 11.71875 -19.046875 C 12.78125 -18.578125 13.613281 -17.882812 14.21875 -16.96875 C 14.820312 -16.050781 15.125 -14.941406 15.125 -13.640625 C 15.125 -12.421875 14.851562 -11.300781 14.3125 -10.28125 C 13.78125 -9.257812 12.957031 -8.484375 11.84375 -7.953125 L 16.8125 0 Z M 8.375 -9.84375 C 9.789062 -9.84375 10.8125 -10.21875 11.4375 -10.96875 C 12.070312 -11.71875 12.390625 -12.570312 12.390625 -13.53125 C 12.390625 -14.113281 12.253906 -14.6875 11.984375 -15.25 C 11.722656 -15.820312 11.304688 -16.296875 10.734375 -16.671875 C 10.160156 -17.046875 9.4375 -17.234375 8.5625 -17.234375 L 5.5 -17.234375 L 5.5 -9.84375 Z M 8.375 -9.84375 "/></g></g></g><g fill="#a77022" fill-opacity="1"><g transform="translate(102.943157, 245.866433)"><g><path d="M 13.203125 -5.203125 L 5.609375 -5.203125 L 3.5 0 L 0.875 0 L 9.515625 -20.59375 L 9.6875 -20.59375 L 18.328125 0 L 15.265625 0 Z M 12.3125 -7.5 L 9.484375 -14.71875 L 6.5625 -7.5 Z M 12.3125 -7.5 "/></g></g></g><g fill="#a77022" fill-opacity="1"><g transform="translate(129.126356, 245.866433)"><g><path d="M 20.078125 -19.765625 L 20.078125 0.65625 L 19.984375 0.65625 L 5.46875 -14.078125 L 5.53125 0 L 2.84375 0 L 2.84375 -20.375 L 2.984375 -20.375 L 17.46875 -5.46875 L 17.421875 -19.765625 Z M 20.078125 -19.765625 "/></g></g></g><g fill="#a77022" fill-opacity="1"><g transform="translate(159.053512, 245.866433)"><g><path d="M 2.84375 -19.765625 L 8.265625 -19.765625 C 10.722656 -19.765625 12.757812 -19.273438 14.375 -18.296875 C 15.988281 -17.328125 17.160156 -16.070312 17.890625 -14.53125 C 18.628906 -12.988281 19 -11.363281 19 -9.65625 C 19 -7.738281 18.550781 -6.046875 17.65625 -4.578125 C 16.769531 -3.109375 15.578125 -1.976562 14.078125 -1.1875 C 12.585938 -0.394531 10.96875 0 9.21875 0 L 2.84375 0 Z M 8.703125 -2.578125 C 10.160156 -2.578125 11.460938 -2.863281 12.609375 -3.4375 C 13.753906 -4.007812 14.648438 -4.84375 15.296875 -5.9375 C 15.941406 -7.03125 16.265625 -8.332031 16.265625 -9.84375 C 16.265625 -11.394531 15.925781 -12.722656 15.25 -13.828125 C 14.582031 -14.941406 13.6875 -15.785156 12.5625 -16.359375 C 11.445312 -16.941406 10.238281 -17.234375 8.9375 -17.234375 L 5.5 -17.234375 L 5.5 -2.578125 Z M 8.703125 -2.578125 "/></g></g></g><g fill="#a77022" fill-opacity="1"><g transform="translate(186.685098, 245.866433)"><g/></g></g><g fill="#a77022" fill-opacity="1"><g transform="translate(202.346966, 245.866433)"><g><path d="M 2.84375 -19.765625 L 8.265625 -19.765625 C 10.722656 -19.765625 12.757812 -19.273438 14.375 -18.296875 C 15.988281 -17.328125 17.160156 -16.070312 17.890625 -14.53125 C 18.628906 -12.988281 19 -11.363281 19 -9.65625 C 19 -7.738281 18.550781 -6.046875 17.65625 -4.578125 C 16.769531 -3.109375 15.578125 -1.976562 14.078125 -1.1875 C 12.585938 -0.394531 10.96875 0 9.21875 0 L 2.84375 0 Z M 8.703125 -2.578125 C 10.160156 -2.578125 11.460938 -2.863281 12.609375 -3.4375 C 13.753906 -4.007812 14.648438 -4.84375 15.296875 -5.9375 C 15.941406 -7.03125 16.265625 -8.332031 16.265625 -9.84375 C 16.265625 -11.394531 15.925781 -12.722656 15.25 -13.828125 C 14.582031 -14.941406 13.6875 -15.785156 12.5625 -16.359375 C 11.445312 -16.941406 10.238281 -17.234375 8.9375 -17.234375 L 5.5 -17.234375 L 5.5 -2.578125 Z M 8.703125 -2.578125 "/></g></g></g><g fill="#a77022" fill-opacity="1"><g transform="translate(229.978564, 245.866433)"><g><path d="M 15.703125 -19.765625 L 15.703125 -17.234375 L 5.5 -17.234375 L 5.5 -11.21875 L 14.609375 -11.21875 L 14.609375 -8.671875 L 5.5 -8.671875 L 5.5 -2.578125 L 16.078125 -2.578125 L 16.078125 0 L 2.84375 0 L 2.84375 -19.765625 Z M 15.703125 -19.765625 "/></g></g></g><g fill="#a77022" fill-opacity="1"><g transform="translate(254.850007, 245.866433)"><g><path d="M 13.078125 -16.25 C 12.359375 -16.625 11.597656 -16.929688 10.796875 -17.171875 C 9.992188 -17.410156 9.238281 -17.53125 8.53125 -17.53125 C 7.457031 -17.53125 6.601562 -17.285156 5.96875 -16.796875 C 5.34375 -16.316406 5.03125 -15.660156 5.03125 -14.828125 C 5.03125 -14.003906 5.398438 -13.332031 6.140625 -12.8125 C 6.878906 -12.289062 7.929688 -11.773438 9.296875 -11.265625 C 10.316406 -10.898438 11.175781 -10.503906 11.875 -10.078125 C 12.582031 -9.648438 13.164062 -9.054688 13.625 -8.296875 C 14.09375 -7.546875 14.328125 -6.585938 14.328125 -5.421875 C 14.328125 -4.359375 14.0625 -3.398438 13.53125 -2.546875 C 13.007812 -1.691406 12.257812 -1.015625 11.28125 -0.515625 C 10.300781 -0.0234375 9.15625 0.21875 7.84375 0.21875 C 6.625 0.21875 5.445312 0.0234375 4.3125 -0.359375 C 3.1875 -0.753906 2.195312 -1.253906 1.34375 -1.859375 L 2.515625 -3.96875 C 3.191406 -3.457031 4.003906 -3.023438 4.953125 -2.671875 C 5.898438 -2.316406 6.785156 -2.140625 7.609375 -2.140625 C 8.660156 -2.140625 9.582031 -2.410156 10.375 -2.953125 C 11.164062 -3.503906 11.5625 -4.316406 11.5625 -5.390625 C 11.5625 -6.296875 11.226562 -7.019531 10.5625 -7.5625 C 9.90625 -8.101562 8.972656 -8.609375 7.765625 -9.078125 C 6.648438 -9.492188 5.722656 -9.898438 4.984375 -10.296875 C 4.253906 -10.703125 3.625 -11.253906 3.09375 -11.953125 C 2.5625 -12.660156 2.296875 -13.546875 2.296875 -14.609375 C 2.296875 -16.148438 2.835938 -17.398438 3.921875 -18.359375 C 5.003906 -19.316406 6.414062 -19.820312 8.15625 -19.875 C 10.28125 -19.875 12.253906 -19.347656 14.078125 -18.296875 Z M 13.078125 -16.25 "/></g></g></g><g fill="#a77022" fill-opacity="1"><g transform="translate(277.781173, 245.866433)"><g><path d="M 5.5 -19.765625 L 5.5 0 L 2.84375 0 L 2.84375 -19.765625 Z M 5.5 -19.765625 "/></g></g></g><g fill="#a77022" fill-opacity="1"><g transform="translate(293.142439, 245.866433)"><g><path d="M 18.34375 -1.703125 C 17.75 -1.222656 16.804688 -0.78125 15.515625 -0.375 C 14.234375 0.0195312 13.046875 0.21875 11.953125 0.21875 C 9.890625 0.21875 8.070312 -0.203125 6.5 -1.046875 C 4.9375 -1.898438 3.726562 -3.0625 2.875 -4.53125 C 2.03125 -6.007812 1.609375 -7.671875 1.609375 -9.515625 C 1.609375 -11.671875 2.0625 -13.535156 2.96875 -15.109375 C 3.882812 -16.679688 5.117188 -17.882812 6.671875 -18.71875 C 8.222656 -19.5625 9.921875 -19.984375 11.765625 -19.984375 C 12.867188 -19.984375 13.910156 -19.851562 14.890625 -19.59375 C 15.878906 -19.332031 16.769531 -18.984375 17.5625 -18.546875 L 16.6875 -16.109375 C 16.101562 -16.429688 15.367188 -16.71875 14.484375 -16.96875 C 13.597656 -17.21875 12.800781 -17.34375 12.09375 -17.34375 C 10.5625 -17.34375 9.207031 -17.03125 8.03125 -16.40625 C 6.851562 -15.789062 5.941406 -14.90625 5.296875 -13.75 C 4.660156 -12.601562 4.34375 -11.265625 4.34375 -9.734375 C 4.34375 -8.316406 4.660156 -7.050781 5.296875 -5.9375 C 5.941406 -4.820312 6.847656 -3.957031 8.015625 -3.34375 C 9.179688 -2.738281 10.507812 -2.4375 12 -2.4375 C 12.695312 -2.4375 13.375 -2.503906 14.03125 -2.640625 C 14.6875 -2.773438 15.234375 -2.972656 15.671875 -3.234375 L 15.671875 -7.140625 L 11.734375 -7.140625 L 11.734375 -9.6875 L 18.34375 -9.6875 Z M 18.34375 -1.703125 "/></g></g></g><g fill="#a77022" fill-opacity="1"><g transform="translate(320.71938, 245.866433)"><g><path d="M 20.078125 -19.765625 L 20.078125 0.65625 L 19.984375 0.65625 L 5.46875 -14.078125 L 5.53125 0 L 2.84375 0 L 2.84375 -20.375 L 2.984375 -20.375 L 17.46875 -5.46875 L 17.421875 -19.765625 Z M 20.078125 -19.765625 "/></g></g></g><g fill="#a77022" fill-opacity="1"><g transform="translate(350.646525, 245.866433)"><g><path d="M 13.078125 -16.25 C 12.359375 -16.625 11.597656 -16.929688 10.796875 -17.171875 C 9.992188 -17.410156 9.238281 -17.53125 8.53125 -17.53125 C 7.457031 -17.53125 6.601562 -17.285156 5.96875 -16.796875 C 5.34375 -16.316406 5.03125 -15.660156 5.03125 -14.828125 C 5.03125 -14.003906 5.398438 -13.332031 6.140625 -12.8125 C 6.878906 -12.289062 7.929688 -11.773438 9.296875 -11.265625 C 10.316406 -10.898438 11.175781 -10.503906 11.875 -10.078125 C 12.582031 -9.648438 13.164062 -9.054688 13.625 -8.296875 C 14.09375 -7.546875 14.328125 -6.585938 14.328125 -5.421875 C 14.328125 -4.359375 14.0625 -3.398438 13.53125 -2.546875 C 13.007812 -1.691406 12.257812 -1.015625 11.28125 -0.515625 C 10.300781 -0.0234375 9.15625 0.21875 7.84375 0.21875 C 6.625 0.21875 5.445312 0.0234375 4.3125 -0.359375 C 3.1875 -0.753906 2.195312 -1.253906 1.34375 -1.859375 L 2.515625 -3.96875 C 3.191406 -3.457031 4.003906 -3.023438 4.953125 -2.671875 C 5.898438 -2.316406 6.785156 -2.140625 7.609375 -2.140625 C 8.660156 -2.140625 9.582031 -2.410156 10.375 -2.953125 C 11.164062 -3.503906 11.5625 -4.316406 11.5625 -5.390625 C 11.5625 -6.296875 11.226562 -7.019531 10.5625 -7.5625 C 9.90625 -8.101562 8.972656 -8.609375 7.765625 -9.078125 C 6.648438 -9.492188 5.722656 -9.898438 4.984375 -10.296875 C 4.253906 -10.703125 3.625 -11.253906 3.09375 -11.953125 C 2.5625 -12.660156 2.296875 -13.546875 2.296875 -14.609375 C 2.296875 -16.148438 2.835938 -17.398438 3.921875 -18.359375 C 5.003906 -19.316406 6.414062 -19.820312 8.15625 -19.875 C 10.28125 -19.875 12.253906 -19.347656 14.078125 -18.296875 Z M 13.078125 -16.25 "/></g></g></g></svg>