<svg xmlns="http://www.w3.org/2000/svg" xmlns:xlink="http://www.w3.org/1999/xlink" width="500" zoomAndPan="magnify" viewBox="0 0 375 262.499992" height="350" preserveAspectRatio="xMidYMid meet" version="1.0"><defs><g/><clipPath id="5fccffddd9"><path d="M 124 201 L 243 201 L 243 233.554688 L 124 233.554688 Z M 124 201 " clip-rule="nonzero"/></clipPath><clipPath id="4daffa05c5"><path d="M 238 229 L 244 229 L 244 233.554688 L 238 233.554688 Z M 238 229 " clip-rule="nonzero"/></clipPath></defs><path fill="#ffffff" d="M 114.792969 180.367188 C 116.351562 180.402344 117.914062 180.476562 119.476562 180.574219 C 119.414062 180.144531 119.34375 179.71875 119.289062 179.289062 C 117.269531 163.773438 119.027344 148.507812 127.019531 134.476562 C 132.269531 125.265625 140.472656 118.890625 147.875 111.664062 C 159.609375 100.203125 174.039062 98.394531 186.207031 98.835938 C 214.011719 98.078125 234.328125 107.75 250.109375 126.269531 C 267.363281 146.515625 269.628906 168.792969 262.808594 191.878906 C 265.234375 192.253906 267.664062 192.589844 270.09375 192.871094 C 269.199219 192.324219 268.984375 191.488281 269.273438 190.242188 C 269.542969 189.097656 269.804688 187.125 271.203125 187.558594 C 273.863281 188.386719 276.488281 187.65625 279.164062 188.152344 C 288.34375 189.859375 297.613281 191.074219 306.84375 192.515625 C 309.363281 192.117188 311.890625 191.632812 314.414062 191.046875 C 316.707031 190.515625 318.96875 189.835938 321.207031 189.070312 C 318.304688 188.625 315.398438 188.179688 312.496094 187.726562 C 299.917969 185.773438 287.386719 183.457031 274.757812 181.929688 C 269.65625 181.316406 271.726562 178.125 271.285156 175.6875 C 270.660156 172.25 272.820312 172.394531 275.246094 172.417969 C 289.628906 172.554688 304.003906 172.65625 318.378906 173.429688 C 326.863281 173.882812 335.386719 173.621094 343.894531 173.675781 C 346.160156 173.691406 348.140625 173.164062 347.832031 170.339844 C 347.554688 167.816406 345.417969 167.976562 343.597656 167.980469 C 339.179688 167.992188 334.75 168.273438 330.34375 168.078125 C 314.222656 167.359375 298.121094 166.101562 281.960938 166.484375 C 278.753906 166.558594 274.949219 167.238281 272.5 165.800781 C 270.347656 164.535156 271.652344 160.386719 271 157.605469 C 270.027344 153.433594 267.328125 148.542969 268.957031 145.210938 C 270.773438 141.503906 276.453125 140.613281 280.597656 138.832031 C 288.695312 135.347656 296.898438 132.097656 304.992188 128.605469 C 306.527344 127.941406 308.710938 126.917969 307.359375 124.59375 C 306.414062 122.972656 304.960938 122.140625 302.683594 123.144531 C 291.542969 128.058594 279.824219 131.648438 269.121094 137.542969 C 266.625 138.914062 265.585938 138.683594 263.929688 136.328125 C 261.890625 133.421875 263.761719 132.066406 265.527344 131.019531 C 270.582031 128.023438 275.71875 125.121094 281.027344 122.605469 C 302.089844 112.625 321.992188 100.550781 342.199219 89.019531 C 343.832031 88.085938 345.230469 87.125 344.449219 85.171875 C 343.648438 83.171875 341.46875 83.273438 340.015625 83.824219 C 337.195312 84.894531 334.539062 86.4375 331.902344 87.933594 C 317.859375 95.917969 304.082031 104.410156 289.738281 111.800781 C 280.273438 116.675781 270.1875 120.308594 261.464844 126.644531 C 260.457031 127.378906 258.363281 128.734375 257.292969 126.34375 C 256.132812 123.753906 253.980469 122.074219 252.046875 120.226562 C 250.53125 118.78125 250.785156 117.945312 252.148438 116.574219 C 263.058594 105.617188 274.242188 94.957031 285.800781 84.695312 C 291.878906 79.300781 298.050781 74.015625 304.175781 68.679688 C 305.558594 67.472656 306.449219 66.246094 304.886719 64.449219 C 303.660156 63.039062 301.871094 62.691406 301.003906 63.894531 C 299.335938 66.210938 296.664062 66.933594 294.679688 68.75 C 288.773438 74.136719 282.941406 79.714844 276.722656 84.636719 C 267.9375 91.589844 261.027344 100.34375 252.554688 107.589844 C 245.929688 113.257812 246.675781 114.128906 239.722656 108.820312 C 248.816406 98.96875 258.132812 89.320312 266.941406 79.226562 C 277.703125 66.898438 288.273438 54.390625 298.019531 41.210938 C 299.273438 39.515625 301.191406 37.65625 299.109375 36.152344 C 297.359375 34.890625 294.9375 35.335938 293.074219 37.722656 C 288.257812 43.890625 283.171875 49.878906 278.332031 56.003906 C 265.375 72.394531 251.164062 87.609375 236.652344 102.574219 C 235.761719 103.492188 234.925781 104.890625 233.226562 103.578125 C 236.667969 95.3125 240.785156 87.378906 244.964844 79.460938 C 251.84375 66.421875 258.628906 53.335938 266.144531 40.648438 C 267.199219 38.871094 268.179688 37.011719 265.980469 35.335938 C 263.710938 33.605469 262.292969 35.613281 261.488281 36.964844 C 255.875 46.433594 250.191406 55.878906 245.074219 65.621094 C 239.207031 76.796875 233.925781 88.28125 228.316406 99.59375 C 227.683594 100.878906 226.683594 101.339844 224.972656 100.539062 C 219.84375 98.140625 214.8125 95.363281 208.980469 94.878906 C 207.613281 94.765625 206.78125 93.816406 207 92.425781 C 208.363281 83.890625 208.042969 75.203125 209.207031 66.679688 C 211.148438 52.4375 212.304688 38.148438 213.050781 23.8125 C 213.179688 21.375 213.296875 18.511719 209.894531 18.847656 C 206.992188 19.132812 206.949219 21.675781 206.921875 24.304688 C 206.859375 30.496094 206.738281 36.75 205.820312 42.855469 C 204.488281 51.71875 204.132812 60.664062 202.984375 69.527344 C 202.140625 76.035156 201.933594 82.570312 201.636719 89.109375 C 201.46875 92.730469 199.078125 93.164062 195.902344 93 C 192.3125 92.808594 193.648438 90.308594 193.375 88.597656 C 193.03125 86.4375 192.625 84.214844 192.773438 82.054688 C 194.359375 59.011719 193.429688 35.871094 195.34375 12.835938 C 195.609375 9.660156 195.601562 6.445312 194.785156 3.230469 C 194.300781 1.332031 193.859375 0.00390625 191.710938 0 C 189.019531 -0.00390625 189.425781 2.128906 189.523438 3.636719 C 190.65625 21.125 187.011719 38.425781 187.628906 55.917969 C 187.933594 64.488281 186.550781 73.109375 186.546875 81.710938 C 186.542969 92.066406 186.808594 91.960938 176.59375 93.5625 C 174.367188 93.910156 173.738281 93.574219 173.148438 91.390625 C 170.070312 80 166.714844 68.679688 163.570312 57.304688 C 162.066406 51.871094 160.898438 46.347656 159.382812 40.917969 C 158.96875 39.429688 158.425781 37.527344 156.089844 37.785156 C 153.625 38.058594 154.113281 40.011719 153.78125 41.609375 C 153.222656 44.324219 154.996094 46.394531 155.507812 48.800781 C 158.527344 63.066406 162.433594 77.085938 166.921875 90.957031 C 167.214844 91.851562 169.617188 94.679688 166.425781 94.640625 C 164.171875 94.613281 161.316406 98.601562 159.316406 93.925781 C 155.570312 85.1875 151.421875 76.625 147.691406 67.882812 C 140.105469 50.089844 133.308594 31.953125 124.328125 14.765625 C 123.125 12.46875 121.78125 10.203125 119.03125 11.664062 C 116.25 13.140625 118.183594 15.4375 119.054688 17.351562 C 123.785156 27.734375 128.613281 38.074219 133.222656 48.515625 C 136.167969 55.1875 138.871094 61.972656 141.527344 68.769531 C 145.125 77.972656 149.347656 86.882812 153.753906 95.71875 C 154.761719 97.738281 153.632812 99.160156 151.941406 100.410156 C 149.511719 102.210938 148.867188 100.328125 147.769531 98.789062 C 142.722656 91.722656 138.65625 84.074219 134.390625 76.546875 C 127.886719 65.066406 121.355469 53.601562 115.042969 42.019531 C 113.734375 39.621094 111.980469 39.246094 110.066406 40.078125 C 107.835938 41.042969 108.449219 43.320312 109.378906 44.804688 C 120.386719 62.390625 129.230469 81.234375 140.582031 98.625 C 144.785156 105.0625 144.707031 105.113281 139.398438 110.847656 C 130.4375 120.535156 130.542969 120.367188 119.273438 113.160156 C 104.554688 103.753906 90.527344 93.375 76.226562 83.382812 C 74.234375 81.992188 71.605469 80.050781 69.597656 82.867188 C 67.582031 85.695312 70.761719 87.140625 72.414062 88.378906 C 77.457031 92.164062 82.738281 95.632812 87.953125 99.183594 C 99.769531 107.234375 111.585938 115.289062 123.460938 123.253906 C 124.386719 123.875 125.960938 123.78125 125.234375 125.460938 C 124.863281 126.332031 124.1875 127.464844 123.417969 127.691406 C 121.949219 128.117188 120.601562 127.324219 119.222656 126.519531 C 95.363281 112.617188 70.5 100.664062 45.574219 88.839844 C 43.589844 87.898438 41.15625 86.683594 39.824219 89.28125 C 38.472656 91.910156 41.003906 92.773438 42.828125 94.03125 C 50.25 99.167969 58.972656 101.546875 66.84375 105.660156 C 81.863281 113.507812 97.257812 120.667969 111.6875 129.636719 C 114.292969 131.257812 118.4375 132.023438 119.402344 134.257812 C 120.554688 136.917969 117.191406 140.160156 116.542969 143.195312 C 115.773438 146.792969 114.285156 147.640625 111.132812 147.03125 C 101.4375 145.164062 91.742188 143.316406 82.050781 141.425781 C 79.765625 140.980469 77.085938 139.800781 76.246094 143.152344 C 75.519531 146.070312 77.878906 146.542969 80.140625 146.984375 C 91.375 149.191406 102.59375 151.488281 113.824219 153.753906 C 113.46875 157.414062 111.882812 158.839844 107.726562 158.460938 C 96.128906 157.410156 84.457031 157.207031 72.859375 156.152344 C 63.167969 155.269531 53.5625 153.496094 43.886719 152.414062 C 35.179688 151.4375 26.433594 150.84375 17.699219 150.125 C 15.964844 149.980469 13.753906 150.164062 14.058594 152.363281 C 14.261719 153.808594 14.96875 156.132812 17.359375 156.230469 C 27.167969 156.628906 36.871094 157.941406 46.59375 159.242188 C 54.949219 160.359375 63.359375 161.253906 71.742188 162.0625 C 76.042969 162.476562 80.28125 163.902344 84.683594 163.394531 C 92.960938 162.445312 101.09375 164.871094 109.363281 164.535156 C 110.316406 164.496094 112.078125 164.445312 112.367188 166.628906 C 113.171875 172.714844 111.507812 174.601562 105.242188 174.238281 C 103.214844 174.121094 101.179688 174.203125 99.148438 174.175781 C 79.714844 173.902344 60.308594 176.183594 40.855469 174.835938 C 38.949219 174.707031 36.476562 174.285156 36.320312 177.425781 C 36.164062 180.625 38.304688 180.890625 40.730469 180.777344 C 41.746094 180.730469 42.773438 180.832031 43.792969 180.816406 C 64.035156 180.480469 84.277344 180.089844 104.519531 179.824219 C 107.671875 179.78125 109.589844 179.816406 110.863281 180.34375 C 112.171875 180.335938 113.480469 180.335938 114.792969 180.367188 Z M 114.792969 180.367188 " fill-opacity="1" fill-rule="nonzero"/><path fill="#ffffff" d="M 110.863281 180.347656 C 110.039062 180.351562 109.214844 180.359375 108.390625 180.382812 C 98.011719 180.644531 87.679688 181.980469 77.339844 183.21875 C 62.078125 185.050781 47.707031 190.558594 32.898438 194.273438 C 27.359375 195.664062 21.445312 196.152344 16.824219 200.027344 C 16.058594 200.667969 14.058594 201.132812 15.128906 202.804688 C 15.914062 204.03125 17.160156 204.585938 18.859375 204.046875 C 33.605469 199.390625 48.714844 196.046875 63.570312 191.816406 C 76.128906 188.242188 89 186.792969 101.839844 186.136719 C 104.039062 186.023438 106.238281 185.992188 108.4375 185.992188 C 110.226562 185.992188 112.015625 186.035156 113.804688 186.097656 C 113.097656 182.632812 112.546875 181.046875 110.863281 180.347656 Z M 110.863281 180.347656 " fill-opacity="1" fill-rule="nonzero"/><path fill="#ffffff" d="M 305.742188 209.625 C 299.898438 211.539062 293.902344 213.015625 287.753906 214.023438 C 281.195312 215.101562 274.703125 215.429688 268.269531 215.195312 C 267.675781 215.175781 267.082031 215.140625 266.488281 215.109375 C 267.566406 215.722656 268.886719 216.394531 270.492188 217.199219 C 272.683594 218.300781 274.859375 219.433594 277.03125 220.570312 C 277.292969 220.554688 277.554688 220.550781 277.820312 220.535156 C 287.535156 219.976562 297.167969 218.1875 306.746094 215.160156 C 309.464844 214.300781 312.097656 213.253906 314.695312 212.128906 C 311.878906 211.230469 309.0625 210.335938 306.242188 209.453125 C 306.074219 209.511719 305.910156 209.570312 305.742188 209.625 Z M 305.742188 209.625 " fill-opacity="1" fill-rule="nonzero"/><path fill="#ffffff" d="M 229.328125 208.007812 C 200.5 199.359375 173.078125 185.953125 142.730469 182.445312 C 142.007812 182.441406 141.28125 182.441406 140.558594 182.4375 C 136.351562 181.378906 131.976562 182.03125 127.785156 181.417969 C 125.007812 181.011719 122.242188 180.746094 119.476562 180.574219 C 119.757812 182.554688 120.089844 184.511719 120.484375 186.449219 C 128.410156 187 136.335938 187.960938 144.257812 188.894531 C 162.070312 190.988281 178.839844 196.539062 195.386719 202.605469 C 211.539062 208.53125 227.683594 214.140625 244.496094 217.699219 C 246.171875 218.050781 247.839844 218.410156 249.527344 218.71875 C 249.796875 218.769531 250.0625 218.808594 250.332031 218.855469 C 250.457031 218.878906 250.585938 218.894531 250.710938 218.917969 C 251.769531 217.222656 252.78125 215.5 253.738281 213.753906 C 251.828125 213.453125 249.921875 213.117188 248.019531 212.738281 C 241.75 211.492188 235.523438 209.867188 229.328125 208.007812 Z M 229.328125 208.007812 " fill-opacity="1" fill-rule="nonzero"/><path fill="#ffffff" d="M 330.117188 205.21875 C 330.460938 204.042969 331.542969 204.457031 332.308594 204.195312 C 333.355469 202.671875 334.425781 201.023438 332.371094 199.601562 C 330.808594 198.519531 329.273438 198.839844 327.496094 199.878906 C 323.941406 201.964844 320.292969 203.804688 316.574219 205.460938 C 316.125 205.660156 315.667969 205.851562 315.214844 206.046875 C 317.769531 206.832031 320.328125 207.613281 322.882812 208.402344 C 325.273438 207.296875 327.675781 206.207031 330.121094 205.21875 Z M 330.117188 205.21875 " fill-opacity="1" fill-rule="nonzero"/><path fill="#ffffff" d="M 257.011719 219.105469 C 256.828125 219.347656 256.667969 219.558594 256.5 219.785156 C 259.066406 220.109375 261.625 220.359375 264.179688 220.511719 C 262.988281 219.828125 261.796875 219.136719 260.617188 218.429688 C 258.695312 217.285156 258.027344 217.757812 257.011719 219.105469 Z M 257.011719 219.105469 " fill-opacity="1" fill-rule="nonzero"/><path fill="#ffffff" d="M 266.488281 215.113281 C 262.214844 214.886719 257.96875 214.421875 253.738281 213.753906 C 252.78125 215.503906 251.769531 217.222656 250.710938 218.917969 C 252.644531 219.253906 254.574219 219.542969 256.5 219.785156 C 256.667969 219.558594 256.828125 219.347656 257.011719 219.105469 C 258.027344 217.757812 258.695312 217.28125 260.617188 218.429688 C 261.796875 219.136719 262.988281 219.828125 264.183594 220.511719 C 264.226562 220.515625 264.273438 220.519531 264.320312 220.523438 C 268.574219 220.777344 272.808594 220.785156 277.03125 220.570312 C 274.859375 219.433594 272.6875 218.300781 270.492188 217.199219 C 268.886719 216.398438 267.566406 215.722656 266.488281 215.109375 Z M 266.488281 215.113281 " fill-opacity="1" fill-rule="nonzero"/><path fill="#ffffff" d="M 314.695312 212.128906 C 315.074219 211.964844 315.457031 211.804688 315.835938 211.636719 C 317.742188 210.792969 319.628906 209.914062 321.519531 209.03125 C 321.972656 208.820312 322.425781 208.613281 322.882812 208.402344 C 320.328125 207.613281 317.769531 206.832031 315.214844 206.042969 C 312.273438 207.308594 309.28125 208.445312 306.246094 209.453125 C 309.0625 210.335938 311.878906 211.230469 314.695312 212.128906 Z M 314.695312 212.128906 " fill-opacity="1" fill-rule="nonzero"/><path fill="#ffffff" d="M 120.484375 186.449219 C 120.089844 184.511719 119.757812 182.550781 119.476562 180.574219 C 117.914062 180.476562 116.351562 180.398438 114.792969 180.367188 C 113.480469 180.335938 112.171875 180.335938 110.863281 180.34375 C 112.546875 181.042969 113.097656 182.628906 113.804688 186.097656 C 114.390625 186.117188 114.976562 186.132812 115.5625 186.160156 C 117.203125 186.234375 118.84375 186.335938 120.484375 186.449219 Z M 120.484375 186.449219 " fill-opacity="1" fill-rule="nonzero"/><path fill="#ffffff" d="M 244.980469 188.460938 C 222.320312 183.367188 201.371094 172.140625 177.898438 169.996094 C 169.261719 169.207031 160.640625 169.304688 151.996094 169.667969 C 150.125 169.75 149.425781 170.964844 149.296875 172.402344 C 149.148438 174.085938 150.304688 174.972656 151.96875 175.042969 C 153.230469 175.097656 154.5 175.140625 155.757812 175.054688 C 176.765625 173.613281 196.648438 178.191406 216.25 185.421875 C 229.082031 190.152344 242.140625 193.921875 255.894531 196.3125 C 257.617188 196.613281 259.359375 196.878906 261.105469 197.136719 C 261.722656 195.378906 262.289062 193.628906 262.808594 191.878906 C 261.007812 191.601562 259.207031 191.304688 257.410156 190.984375 C 253.261719 190.238281 249.117188 189.390625 244.980469 188.460938 Z M 244.980469 188.460938 " fill-opacity="1" fill-rule="nonzero"/><path fill="#ffffff" d="M 306.839844 192.515625 C 294.699219 194.441406 282.570312 194.300781 270.476562 192.917969 C 270.347656 192.902344 270.21875 192.886719 270.09375 192.871094 C 270.429688 193.078125 270.855469 193.246094 271.398438 193.375 C 277.382812 194.808594 283.332031 196.414062 289.234375 198.160156 C 290.554688 198.554688 291.871094 198.960938 293.195312 199.355469 C 293.71875 199.386719 294.242188 199.414062 294.765625 199.433594 C 303.558594 199.753906 312.347656 197.84375 321.144531 194.90625 C 317.078125 194.203125 313.011719 193.5 308.9375 192.84375 C 308.238281 192.734375 307.539062 192.625 306.839844 192.515625 Z M 306.839844 192.515625 " fill-opacity="1" fill-rule="nonzero"/><path fill="#ffffff" d="M 345.867188 184.902344 C 348.449219 183.773438 353.730469 183.539062 351.429688 179.222656 C 349.953125 176.457031 345.832031 178.871094 342.890625 180.078125 C 335.667969 183.035156 328.554688 186.558594 321.207031 189.070312 C 324.867188 189.636719 328.523438 190.203125 332.183594 190.765625 C 336.742188 188.898438 341.304688 186.894531 345.867188 184.902344 Z M 345.867188 184.902344 " fill-opacity="1" fill-rule="nonzero"/><path fill="#ffffff" d="M 271.398438 193.375 C 270.855469 193.246094 270.429688 193.078125 270.09375 192.871094 C 267.664062 192.589844 265.234375 192.253906 262.808594 191.878906 C 262.289062 193.625 261.722656 195.378906 261.105469 197.136719 C 270.617188 198.523438 280.480469 199.253906 290.855469 199.15625 C 291.632812 199.246094 292.414062 199.304688 293.195312 199.355469 C 291.871094 198.960938 290.554688 198.554688 289.234375 198.160156 C 283.332031 196.414062 277.382812 194.808594 271.398438 193.378906 Z M 271.398438 193.375 " fill-opacity="1" fill-rule="nonzero"/><path fill="#ffffff" d="M 321.207031 189.070312 C 318.96875 189.835938 316.707031 190.515625 314.414062 191.046875 C 311.886719 191.632812 309.363281 192.117188 306.839844 192.515625 C 307.539062 192.625 308.238281 192.734375 308.9375 192.847656 C 313.011719 193.5 317.078125 194.203125 321.144531 194.90625 C 324.824219 193.675781 328.503906 192.269531 332.183594 190.765625 C 328.523438 190.203125 324.867188 189.636719 321.207031 189.070312 Z M 321.207031 189.070312 " fill-opacity="1" fill-rule="nonzero"/><path fill="#ffffff" d="M 109.746094 200.914062 C 99.558594 200.746094 90.957031 200.78125 82.640625 201.691406 C 76.507812 203.246094 70.371094 204.796875 64.234375 206.347656 C 63.789062 206.765625 63.546875 207.289062 63.773438 208.015625 C 64.136719 209.1875 65.425781 209.886719 66.839844 209.734375 C 67.882812 209.625 68.914062 209.398438 69.953125 209.230469 C 76.96875 208.097656 83.917969 206.398438 91.09375 206.5 C 94.335938 206.542969 97.574219 206.542969 100.8125 206.535156 C 104.175781 204.683594 107.523438 202.804688 110.859375 200.894531 C 110.488281 200.898438 110.117188 200.898438 109.746094 200.914062 Z M 109.746094 200.914062 " fill-opacity="1" fill-rule="nonzero"/><path fill="#ffffff" d="M 115.566406 205.09375 C 114.714844 205.601562 113.851562 206.09375 112.996094 206.59375 C 115.679688 206.640625 118.363281 206.730469 121.050781 206.878906 C 121.019531 206.816406 120.988281 206.753906 120.960938 206.691406 C 119.867188 204.199219 118.371094 203.410156 115.566406 205.09375 Z M 115.566406 205.09375 " fill-opacity="1" fill-rule="nonzero"/><g clip-path="url(#5fccffddd9)"><path fill="#ffffff" d="M 240.292969 228.097656 C 238.742188 227.894531 237.203125 227.648438 235.671875 227.375 C 225.222656 225.511719 215.148438 222.183594 205.121094 218.75 C 178.519531 209.640625 151.585938 202.457031 124.867188 201.074219 C 125.761719 203.230469 126.769531 205.335938 127.882812 207.382812 C 135.699219 208.125 143.621094 208.644531 151.292969 209.945312 C 175.324219 214.019531 197.941406 223.308594 221.269531 230.003906 C 224.074219 230.8125 226.90625 231.753906 229.789062 232.445312 C 232.59375 233.117188 235.445312 233.535156 238.375 233.328125 C 239.960938 232.046875 241.480469 230.65625 242.933594 229.148438 C 242.363281 228.480469 241.394531 228.246094 240.292969 228.097656 Z M 240.292969 228.097656 " fill-opacity="1" fill-rule="nonzero"/></g><path fill="#ffffff" d="M 127.144531 207.316406 C 127.390625 207.339844 127.636719 207.359375 127.882812 207.382812 C 126.769531 205.332031 125.761719 203.230469 124.867188 201.070312 C 123.105469 200.980469 121.339844 200.914062 119.578125 200.875 C 117.046875 200.816406 114.523438 200.816406 112 200.871094 C 111.617188 200.882812 111.238281 200.886719 110.859375 200.894531 C 107.523438 202.800781 104.175781 204.683594 100.8125 206.535156 C 104.484375 206.527344 108.160156 206.519531 111.835938 206.566406 C 112.222656 206.574219 112.609375 206.585938 112.996094 206.59375 C 113.851562 206.09375 114.714844 205.601562 115.566406 205.089844 C 118.371094 203.410156 119.867188 204.199219 120.960938 206.691406 C 120.988281 206.75 121.019531 206.816406 121.054688 206.875 C 121.445312 206.898438 121.839844 206.90625 122.234375 206.933594 C 123.871094 207.035156 125.503906 207.15625 127.144531 207.316406 Z M 127.144531 207.316406 " fill-opacity="1" fill-rule="nonzero"/><g clip-path="url(#4daffa05c5)"><path fill="#ffffff" d="M 238.375 233.328125 C 238.96875 233.285156 239.566406 233.226562 240.167969 233.128906 C 241.566406 232.898438 243.730469 232.675781 243.4375 230.34375 C 243.371094 229.828125 243.1875 229.449219 242.933594 229.148438 C 241.480469 230.65625 239.960938 232.046875 238.375 233.328125 Z M 238.375 233.328125 " fill-opacity="1" fill-rule="nonzero"/></g><g fill="#ffffff" fill-opacity="1"><g transform="translate(14.042802, 253.404437)"><g><path d="M 14.640625 -1.359375 C 14.160156 -0.972656 13.40625 -0.617188 12.375 -0.296875 C 11.351562 0.015625 10.40625 0.171875 9.53125 0.171875 C 7.894531 0.171875 6.445312 -0.164062 5.1875 -0.84375 C 3.9375 -1.519531 2.972656 -2.445312 2.296875 -3.625 C 1.617188 -4.800781 1.28125 -6.125 1.28125 -7.59375 C 1.28125 -9.3125 1.644531 -10.800781 2.375 -12.0625 C 3.101562 -13.320312 4.085938 -14.285156 5.328125 -14.953125 C 6.566406 -15.617188 7.921875 -15.953125 9.390625 -15.953125 C 10.273438 -15.953125 11.109375 -15.847656 11.890625 -15.640625 C 12.679688 -15.429688 13.390625 -15.148438 14.015625 -14.796875 L 13.3125 -12.859375 C 12.84375 -13.117188 12.253906 -13.347656 11.546875 -13.546875 C 10.847656 -13.742188 10.210938 -13.84375 9.640625 -13.84375 C 8.421875 -13.84375 7.34375 -13.59375 6.40625 -13.09375 C 5.46875 -12.601562 4.742188 -11.898438 4.234375 -10.984375 C 3.722656 -10.066406 3.46875 -8.992188 3.46875 -7.765625 C 3.46875 -6.628906 3.722656 -5.617188 4.234375 -4.734375 C 4.742188 -3.847656 5.460938 -3.160156 6.390625 -2.671875 C 7.328125 -2.179688 8.390625 -1.9375 9.578125 -1.9375 C 10.128906 -1.9375 10.664062 -1.988281 11.1875 -2.09375 C 11.71875 -2.207031 12.15625 -2.367188 12.5 -2.578125 L 12.5 -5.703125 L 9.359375 -5.703125 L 9.359375 -7.734375 L 14.640625 -7.734375 Z M 14.640625 -1.359375 "/></g></g></g><g fill="#ffffff" fill-opacity="1"><g transform="translate(36.062413, 253.404437)"><g><path d="M 10.953125 0 L 7.25 -5.828125 C 7.132812 -5.816406 6.957031 -5.8125 6.71875 -5.8125 L 4.390625 -5.8125 L 4.390625 0 L 2.265625 0 L 2.265625 -15.78125 L 6.484375 -15.78125 C 7.554688 -15.78125 8.515625 -15.585938 9.359375 -15.203125 C 10.203125 -14.828125 10.863281 -14.269531 11.34375 -13.53125 C 11.832031 -12.800781 12.078125 -11.921875 12.078125 -10.890625 C 12.078125 -9.921875 11.859375 -9.023438 11.421875 -8.203125 C 10.992188 -7.390625 10.335938 -6.773438 9.453125 -6.359375 L 13.421875 0 Z M 6.671875 -7.859375 C 7.804688 -7.859375 8.625 -8.15625 9.125 -8.75 C 9.632812 -9.34375 9.890625 -10.03125 9.890625 -10.8125 C 9.890625 -11.269531 9.78125 -11.722656 9.5625 -12.171875 C 9.351562 -12.628906 9.019531 -13.003906 8.5625 -13.296875 C 8.101562 -13.597656 7.523438 -13.75 6.828125 -13.75 L 4.390625 -13.75 L 4.390625 -7.859375 Z M 6.671875 -7.859375 "/></g></g></g><g fill="#ffffff" fill-opacity="1"><g transform="translate(56.074489, 253.404437)"><g><path d="M 10.546875 -4.140625 L 4.46875 -4.140625 L 2.796875 0 L 0.703125 0 L 7.59375 -16.4375 L 7.734375 -16.4375 L 14.625 0 L 12.1875 0 Z M 9.828125 -5.984375 L 7.578125 -11.75 L 5.234375 -5.984375 Z M 9.828125 -5.984375 "/></g></g></g><g fill="#ffffff" fill-opacity="1"><g transform="translate(76.981225, 253.404437)"><g><path d="M 16.015625 -15.78125 L 16.015625 0.53125 L 15.953125 0.53125 L 4.359375 -11.234375 L 4.40625 0 L 2.265625 0 L 2.265625 -16.265625 L 2.375 -16.265625 L 13.953125 -4.359375 L 13.90625 -15.78125 Z M 16.015625 -15.78125 "/></g></g></g><g fill="#ffffff" fill-opacity="1"><g transform="translate(100.877434, 253.404437)"><g><path d="M 2.265625 -15.78125 L 6.59375 -15.78125 C 8.550781 -15.78125 10.175781 -15.390625 11.46875 -14.609375 C 12.757812 -13.835938 13.695312 -12.832031 14.28125 -11.59375 C 14.875 -10.363281 15.171875 -9.066406 15.171875 -7.703125 C 15.171875 -6.171875 14.8125 -4.820312 14.09375 -3.65625 C 13.382812 -2.488281 12.429688 -1.585938 11.234375 -0.953125 C 10.046875 -0.316406 8.753906 0 7.359375 0 L 2.265625 0 Z M 6.9375 -2.046875 C 8.101562 -2.046875 9.144531 -2.273438 10.0625 -2.734375 C 10.976562 -3.191406 11.691406 -3.859375 12.203125 -4.734375 C 12.722656 -5.609375 12.984375 -6.648438 12.984375 -7.859375 C 12.984375 -9.097656 12.710938 -10.160156 12.171875 -11.046875 C 11.640625 -11.929688 10.925781 -12.601562 10.03125 -13.0625 C 9.132812 -13.519531 8.171875 -13.75 7.140625 -13.75 L 4.390625 -13.75 L 4.390625 -2.046875 Z M 6.9375 -2.046875 "/></g></g></g><g fill="#ffffff" fill-opacity="1"><g transform="translate(122.940677, 253.404437)"><g><path d="M 10.4375 -12.96875 C 9.863281 -13.269531 9.253906 -13.515625 8.609375 -13.703125 C 7.972656 -13.890625 7.375 -13.984375 6.8125 -13.984375 C 5.945312 -13.984375 5.265625 -13.789062 4.765625 -13.40625 C 4.265625 -13.019531 4.015625 -12.492188 4.015625 -11.828125 C 4.015625 -11.171875 4.304688 -10.632812 4.890625 -10.21875 C 5.484375 -9.8125 6.328125 -9.40625 7.421875 -9 C 8.234375 -8.707031 8.921875 -8.390625 9.484375 -8.046875 C 10.046875 -7.703125 10.507812 -7.226562 10.875 -6.625 C 11.25 -6.019531 11.4375 -5.253906 11.4375 -4.328125 C 11.4375 -3.484375 11.222656 -2.71875 10.796875 -2.03125 C 10.378906 -1.34375 9.78125 -0.800781 9 -0.40625 C 8.226562 -0.0195312 7.316406 0.171875 6.265625 0.171875 C 5.285156 0.171875 4.34375 0.015625 3.4375 -0.296875 C 2.539062 -0.609375 1.75 -1.003906 1.0625 -1.484375 L 2.015625 -3.171875 C 2.546875 -2.753906 3.191406 -2.40625 3.953125 -2.125 C 4.710938 -1.84375 5.414062 -1.703125 6.0625 -1.703125 C 6.90625 -1.703125 7.644531 -1.921875 8.28125 -2.359375 C 8.914062 -2.796875 9.234375 -3.441406 9.234375 -4.296875 C 9.234375 -5.023438 8.96875 -5.601562 8.4375 -6.03125 C 7.90625 -6.457031 7.160156 -6.863281 6.203125 -7.25 C 5.316406 -7.582031 4.578125 -7.90625 3.984375 -8.21875 C 3.390625 -8.539062 2.878906 -8.984375 2.453125 -9.546875 C 2.035156 -10.109375 1.828125 -10.8125 1.828125 -11.65625 C 1.828125 -12.894531 2.257812 -13.894531 3.125 -14.65625 C 4 -15.414062 5.125 -15.820312 6.5 -15.875 C 8.207031 -15.875 9.785156 -15.453125 11.234375 -14.609375 Z M 10.4375 -12.96875 "/></g></g></g><g fill="#ffffff" fill-opacity="1"><g transform="translate(141.250724, 253.404437)"><g><path d="M 11.59375 -15.78125 L 11.59375 -13.75 L 7.359375 -13.75 L 7.359375 0 L 5.234375 0 L 5.234375 -13.75 L 1.109375 -13.75 L 1.109375 -15.78125 Z M 11.59375 -15.78125 "/></g></g></g><g fill="#ffffff" fill-opacity="1"><g transform="translate(159.560772, 253.404437)"><g><path d="M 10.546875 -4.140625 L 4.46875 -4.140625 L 2.796875 0 L 0.703125 0 L 7.59375 -16.4375 L 7.734375 -16.4375 L 14.625 0 L 12.1875 0 Z M 9.828125 -5.984375 L 7.578125 -11.75 L 5.234375 -5.984375 Z M 9.828125 -5.984375 "/></g></g></g><g fill="#ffffff" fill-opacity="1"><g transform="translate(180.467508, 253.404437)"><g><path d="M 11.640625 -15.78125 L 11.640625 -13.75 L 4.390625 -13.75 L 4.390625 -8.734375 L 10.734375 -8.734375 L 10.734375 -6.703125 L 4.390625 -6.703125 L 4.390625 0 L 2.265625 0 L 2.265625 -15.78125 Z M 11.640625 -15.78125 "/></g></g></g><g fill="#ffffff" fill-opacity="1"><g transform="translate(198.930296, 253.404437)"><g><path d="M 11.640625 -15.78125 L 11.640625 -13.75 L 4.390625 -13.75 L 4.390625 -8.734375 L 10.734375 -8.734375 L 10.734375 -6.703125 L 4.390625 -6.703125 L 4.390625 0 L 2.265625 0 L 2.265625 -15.78125 Z M 11.640625 -15.78125 "/></g></g></g><g fill="#ffffff" fill-opacity="1"><g transform="translate(217.393101, 253.404437)"><g/></g></g><g fill="#ffffff" fill-opacity="1"><g transform="translate(229.898784, 253.404437)"><g><path d="M 2.265625 -15.78125 L 6.59375 -15.78125 C 8.550781 -15.78125 10.175781 -15.390625 11.46875 -14.609375 C 12.757812 -13.835938 13.695312 -12.832031 14.28125 -11.59375 C 14.875 -10.363281 15.171875 -9.066406 15.171875 -7.703125 C 15.171875 -6.171875 14.8125 -4.820312 14.09375 -3.65625 C 13.382812 -2.488281 12.429688 -1.585938 11.234375 -0.953125 C 10.046875 -0.316406 8.753906 0 7.359375 0 L 2.265625 0 Z M 6.9375 -2.046875 C 8.101562 -2.046875 9.144531 -2.273438 10.0625 -2.734375 C 10.976562 -3.191406 11.691406 -3.859375 12.203125 -4.734375 C 12.722656 -5.609375 12.984375 -6.648438 12.984375 -7.859375 C 12.984375 -9.097656 12.710938 -10.160156 12.171875 -11.046875 C 11.640625 -11.929688 10.925781 -12.601562 10.03125 -13.0625 C 9.132812 -13.519531 8.171875 -13.75 7.140625 -13.75 L 4.390625 -13.75 L 4.390625 -2.046875 Z M 6.9375 -2.046875 "/></g></g></g><g fill="#ffffff" fill-opacity="1"><g transform="translate(251.962018, 253.404437)"><g><path d="M 12.53125 -15.78125 L 12.53125 -13.75 L 4.390625 -13.75 L 4.390625 -8.953125 L 11.65625 -8.953125 L 11.65625 -6.921875 L 4.390625 -6.921875 L 4.390625 -2.046875 L 12.828125 -2.046875 L 12.828125 0 L 2.265625 0 L 2.265625 -15.78125 Z M 12.53125 -15.78125 "/></g></g></g><g fill="#ffffff" fill-opacity="1"><g transform="translate(271.821345, 253.404437)"><g><path d="M 10.4375 -12.96875 C 9.863281 -13.269531 9.253906 -13.515625 8.609375 -13.703125 C 7.972656 -13.890625 7.375 -13.984375 6.8125 -13.984375 C 5.945312 -13.984375 5.265625 -13.789062 4.765625 -13.40625 C 4.265625 -13.019531 4.015625 -12.492188 4.015625 -11.828125 C 4.015625 -11.171875 4.304688 -10.632812 4.890625 -10.21875 C 5.484375 -9.8125 6.328125 -9.40625 7.421875 -9 C 8.234375 -8.707031 8.921875 -8.390625 9.484375 -8.046875 C 10.046875 -7.703125 10.507812 -7.226562 10.875 -6.625 C 11.25 -6.019531 11.4375 -5.253906 11.4375 -4.328125 C 11.4375 -3.484375 11.222656 -2.71875 10.796875 -2.03125 C 10.378906 -1.34375 9.78125 -0.800781 9 -0.40625 C 8.226562 -0.0195312 7.316406 0.171875 6.265625 0.171875 C 5.285156 0.171875 4.34375 0.015625 3.4375 -0.296875 C 2.539062 -0.609375 1.75 -1.003906 1.0625 -1.484375 L 2.015625 -3.171875 C 2.546875 -2.753906 3.191406 -2.40625 3.953125 -2.125 C 4.710938 -1.84375 5.414062 -1.703125 6.0625 -1.703125 C 6.90625 -1.703125 7.644531 -1.921875 8.28125 -2.359375 C 8.914062 -2.796875 9.234375 -3.441406 9.234375 -4.296875 C 9.234375 -5.023438 8.96875 -5.601562 8.4375 -6.03125 C 7.90625 -6.457031 7.160156 -6.863281 6.203125 -7.25 C 5.316406 -7.582031 4.578125 -7.90625 3.984375 -8.21875 C 3.390625 -8.539062 2.878906 -8.984375 2.453125 -9.546875 C 2.035156 -10.109375 1.828125 -10.8125 1.828125 -11.65625 C 1.828125 -12.894531 2.257812 -13.894531 3.125 -14.65625 C 4 -15.414062 5.125 -15.820312 6.5 -15.875 C 8.207031 -15.875 9.785156 -15.453125 11.234375 -14.609375 Z M 10.4375 -12.96875 "/></g></g></g><g fill="#ffffff" fill-opacity="1"><g transform="translate(290.131401, 253.404437)"><g><path d="M 4.390625 -15.78125 L 4.390625 0 L 2.265625 0 L 2.265625 -15.78125 Z M 4.390625 -15.78125 "/></g></g></g><g fill="#ffffff" fill-opacity="1"><g transform="translate(302.397051, 253.404437)"><g><path d="M 14.640625 -1.359375 C 14.160156 -0.972656 13.40625 -0.617188 12.375 -0.296875 C 11.351562 0.015625 10.40625 0.171875 9.53125 0.171875 C 7.894531 0.171875 6.445312 -0.164062 5.1875 -0.84375 C 3.9375 -1.519531 2.972656 -2.445312 2.296875 -3.625 C 1.617188 -4.800781 1.28125 -6.125 1.28125 -7.59375 C 1.28125 -9.3125 1.644531 -10.800781 2.375 -12.0625 C 3.101562 -13.320312 4.085938 -14.285156 5.328125 -14.953125 C 6.566406 -15.617188 7.921875 -15.953125 9.390625 -15.953125 C 10.273438 -15.953125 11.109375 -15.847656 11.890625 -15.640625 C 12.679688 -15.429688 13.390625 -15.148438 14.015625 -14.796875 L 13.3125 -12.859375 C 12.84375 -13.117188 12.253906 -13.347656 11.546875 -13.546875 C 10.847656 -13.742188 10.210938 -13.84375 9.640625 -13.84375 C 8.421875 -13.84375 7.34375 -13.59375 6.40625 -13.09375 C 5.46875 -12.601562 4.742188 -11.898438 4.234375 -10.984375 C 3.722656 -10.066406 3.46875 -8.992188 3.46875 -7.765625 C 3.46875 -6.628906 3.722656 -5.617188 4.234375 -4.734375 C 4.742188 -3.847656 5.460938 -3.160156 6.390625 -2.671875 C 7.328125 -2.179688 8.390625 -1.9375 9.578125 -1.9375 C 10.128906 -1.9375 10.664062 -1.988281 11.1875 -2.09375 C 11.71875 -2.207031 12.15625 -2.367188 12.5 -2.578125 L 12.5 -5.703125 L 9.359375 -5.703125 L 9.359375 -7.734375 L 14.640625 -7.734375 Z M 14.640625 -1.359375 "/></g></g></g><g fill="#ffffff" fill-opacity="1"><g transform="translate(324.416679, 253.404437)"><g><path d="M 16.015625 -15.78125 L 16.015625 0.53125 L 15.953125 0.53125 L 4.359375 -11.234375 L 4.40625 0 L 2.265625 0 L 2.265625 -16.265625 L 2.375 -16.265625 L 13.953125 -4.359375 L 13.90625 -15.78125 Z M 16.015625 -15.78125 "/></g></g></g><g fill="#ffffff" fill-opacity="1"><g transform="translate(348.312897, 253.404437)"><g><path d="M 10.4375 -12.96875 C 9.863281 -13.269531 9.253906 -13.515625 8.609375 -13.703125 C 7.972656 -13.890625 7.375 -13.984375 6.8125 -13.984375 C 5.945312 -13.984375 5.265625 -13.789062 4.765625 -13.40625 C 4.265625 -13.019531 4.015625 -12.492188 4.015625 -11.828125 C 4.015625 -11.171875 4.304688 -10.632812 4.890625 -10.21875 C 5.484375 -9.8125 6.328125 -9.40625 7.421875 -9 C 8.234375 -8.707031 8.921875 -8.390625 9.484375 -8.046875 C 10.046875 -7.703125 10.507812 -7.226562 10.875 -6.625 C 11.25 -6.019531 11.4375 -5.253906 11.4375 -4.328125 C 11.4375 -3.484375 11.222656 -2.71875 10.796875 -2.03125 C 10.378906 -1.34375 9.78125 -0.800781 9 -0.40625 C 8.226562 -0.0195312 7.316406 0.171875 6.265625 0.171875 C 5.285156 0.171875 4.34375 0.015625 3.4375 -0.296875 C 2.539062 -0.609375 1.75 -1.003906 1.0625 -1.484375 L 2.015625 -3.171875 C 2.546875 -2.753906 3.191406 -2.40625 3.953125 -2.125 C 4.710938 -1.84375 5.414062 -1.703125 6.0625 -1.703125 C 6.90625 -1.703125 7.644531 -1.921875 8.28125 -2.359375 C 8.914062 -2.796875 9.234375 -3.441406 9.234375 -4.296875 C 9.234375 -5.023438 8.96875 -5.601562 8.4375 -6.03125 C 7.90625 -6.457031 7.160156 -6.863281 6.203125 -7.25 C 5.316406 -7.582031 4.578125 -7.90625 3.984375 -8.21875 C 3.390625 -8.539062 2.878906 -8.984375 2.453125 -9.546875 C 2.035156 -10.109375 1.828125 -10.8125 1.828125 -11.65625 C 1.828125 -12.894531 2.257812 -13.894531 3.125 -14.65625 C 4 -15.414062 5.125 -15.820312 6.5 -15.875 C 8.207031 -15.875 9.785156 -15.453125 11.234375 -14.609375 Z M 10.4375 -12.96875 "/></g></g></g></svg>